<svg viewBox="0 0 1050 238" version="1.1" xmlns="http://www.w3.org/2000/svg" xmlns:xlink="http://www.w3.org/1999/xlink" overflow="visible" id="bu9xn3t">
   <desc>Engraved by Verovio 5.6.0[undefined]</desc>
   <defs>
      <g id="E050-bu9xn3t">
         <path transform="scale(1,-1)" d="M376 415l25 -145c3 -18 3 -18 29 -18c147 0 241 -113 241 -241c0 -113 -67 -198 -168 -238c-14 -6 -15 -5 -13 -17c11 -62 29 -157 29 -214c0 -170 -130 -200 -197 -200c-151 0 -190 98 -190 163c0 62 40 115 107 115c61 0 96 -47 96 -102c0 -58 -36 -85 -67 -94 c-23 -7 -32 -10 -32 -17c0 -13 26 -29 80 -29c59 0 159 18 159 166c0 47 -15 134 -27 201c-2 12 -4 11 -15 9c-20 -4 -46 -6 -69 -6c-245 0 -364 165 -364 339c0 202 153 345 297 464c12 10 11 12 9 24c-7 41 -14 106 -14 164c0 104 24 229 98 311c20 22 51 48 65 48 c11 0 37 -28 52 -50c41 -60 65 -146 65 -233c0 -153 -82 -280 -190 -381c-6 -6 -8 -7 -6 -19zM470 943c-61 0 -133 -96 -133 -252c0 -32 2 -66 6 -92c2 -13 6 -14 13 -8c79 69 174 159 174 270c0 55 -27 82 -60 82zM361 262l-21 128c-2 11 -4 12 -14 4 c-47 -38 -93 -75 -153 -142c-83 -94 -93 -173 -93 -232c0 -139 113 -236 288 -236c20 0 40 2 56 5c15 3 16 3 14 14l-50 298c-2 11 -4 12 -20 8c-61 -17 -100 -60 -100 -117c0 -46 30 -89 72 -107c7 -3 15 -6 15 -13c0 -6 -4 -11 -12 -11c-7 0 -19 3 -27 6 c-68 23 -115 87 -115 177c0 85 57 164 145 194c18 6 18 5 15 24zM430 103l49 -285c2 -12 4 -12 16 -6c56 28 94 79 94 142c0 88 -67 156 -148 163c-12 1 -13 -2 -11 -14z" />
      </g>
      <g id="E084-bu9xn3t">
         <path transform="scale(1,-1)" d="M362 -74h73c11 0 15 -7 15 -19s-5 -19 -15 -19h-73v-59c0 -32 21 -38 31 -38s22 -6 22 -20s-10 -21 -20 -21h-213c-15 0 -19 11 -19 21s7 19 23 19c18 0 40 8 40 35v63h-186c-12 0 -20 7 -20 17c0 3 1 7 3 12l1 1v1l6 8c30 42 128 181 128 305c0 16 14 19 23 19 c8 0 53 -2 71 -2s59 2 68 2c8 0 15 -6 15 -15l-1 -3c-3 -12 -163 -239 -243 -307h135v84c0 12 5 18 9 23l95 115c6 7 11 9 20 9c11 0 12 -9 12 -17v-214z" />
      </g>
      <g id="E0A4-bu9xn3t">
         <path transform="scale(1,-1)" d="M97 -125c-54 0 -97 31 -97 83c0 86 88 167 198 167c57 0 97 -32 97 -83c0 -85 -109 -167 -198 -167z" />
      </g>
      <g id="E262-bu9xn3t">
         <path transform="scale(1,-1)" d="M237 118l-26 -10c-8 -3 -13 -22 -13 -29v-93c0 -12 7 -18 13 -18l26 10c2 1 3 1 5 1c4 0 7 -3 7 -8v-71c0 -6 -5 -14 -12 -17c0 0 -21 -8 -28 -11s-11 -15 -11 -23v-142c0 -6 -6 -11 -17 -11c-7 0 -13 5 -13 11v125c0 6 -5 18 -14 18l-2 -1h-1l-61 -25 c-5 -2 -10 -9 -10 -22v-139c0 -6 -7 -11 -17 -11c-7 0 -13 5 -13 11v123c0 5 -5 16 -12 16c-1 0 -2 0 -3 -1c-9 -3 -23 -9 -24 -9l-2 -1c-6 0 -9 3 -9 9v71c0 6 5 14 12 16c0 0 21 9 27 11c6 3 11 12 11 23v99c0 8 -6 18 -14 18l-1 -1c-8 -4 -23 -10 -24 -10l-2 -1 c-6 0 -9 3 -9 9v71c0 6 5 14 12 16c0 0 20 8 26 11s12 13 12 27v135c0 6 6 11 16 11c7 0 14 -5 14 -11v-120c0 -8 3 -20 12 -20c17 4 51 18 63 25c9 6 12 19 13 29v130c0 6 6 11 16 11c8 0 14 -5 14 -11v-122c0 -8 7 -13 14 -13c5 1 25 9 25 9c2 1 3 1 5 1c4 0 7 -3 7 -8 v-71c0 -6 -5 -14 -12 -17zM168 -45c2 9 4 37 4 64s-2 52 -4 57c-2 4 -8 6 -15 6c-25 0 -71 -21 -73 -38c-2 -8 -3 -43 -3 -74c0 -24 1 -46 3 -50c1 -3 6 -5 12 -5c23 0 70 20 76 40z" />
      </g>
      <g id="E0A3-bu9xn3t">
         <path transform="scale(1,-1)" d="M97 -125c-55 0 -97 30 -97 83c0 52 47 167 196 167c58 0 99 -32 99 -83c0 -33 -33 -167 -198 -167zM75 -87c48 0 189 88 189 131c0 7 -3 13 -6 19c-7 12 -18 21 -37 21c-47 0 -192 -79 -192 -128c0 -7 3 -14 6 -20c7 -12 19 -23 40 -23z" />
      </g>
      <g id="E062-bu9xn3t">
         <path transform="scale(1,-1)" d="M252 262c173 0 279 -116 279 -290c0 -304 -260 -482 -506 -602c-6 -3 -12 -5 -17 -5c-9 0 -13 6 -13 12c0 8 6 13 15 18c233 133 371 289 371 568c0 157 -46 261 -152 261c-102 0 -162 -73 -162 -113c0 -10 3 -18 16 -18s23 7 50 7c49 0 96 -40 96 -104 c0 -62 -43 -106 -106 -106c-81 0 -123 69 -123 149c0 96 78 223 252 223zM629 180c31 0 55 -24 55 -55s-24 -55 -55 -55s-55 24 -55 55s24 55 55 55zM630 -71c31 0 54 -23 54 -54s-23 -54 -54 -54s-54 23 -54 54s23 54 54 54z" />
      </g>
      <g id="E0A2-bu9xn3t">
         <path transform="scale(1,-1)" d="M216 125c93 0 206 -52 206 -123c0 -70 -52 -127 -216 -127c-149 0 -206 60 -206 127c0 68 83 123 216 123zM111 63c-2 -8 -3 -16 -3 -24c0 -32 15 -66 35 -89c21 -28 58 -52 94 -52c10 0 21 1 31 4c33 8 46 36 46 67c0 60 -55 134 -124 134c-31 0 -68 -5 -79 -40z" />
      </g>
   </defs>
   <style type="text/css">#bu9xn3t g.page-margin {font-family:Times,serif;}#bu9xn3t g.ending, #bu9xn3t g.fing, #bu9xn3t g.reh, #bu9xn3t g.tempo {font-weight:bold;}#bu9xn3t g.dir, #bu9xn3t g.dynam, #bu9xn3t g.mNum {font-style:italic;}#bu9xn3t g.label {font-weight:normal;}#bu9xn3t path {stroke:currentColor}</style>
   <svg class="definition-scale" color="black" viewBox="0 0 21000 4760">
      <g class="page-margin" transform="translate(500, 500)">
         <g data-id="lg13bpd" data-class="mdiv" class="mdiv pageMilestone" />
         <g data-id="m15u59b4" data-class="score" class="score pageMilestone" />
         <g data-id="aqn9xuw" data-class="system" class="system">
            <path d="M13 630 L13 3150" stroke-width="27" />
            <g data-id="o1mgxx6s" data-class="section" class="section systemMilestone" />
            <g data-id="a17occei" data-class="measure" class="measure">
               <g data-id="jaba5zl" data-class="staff" class="staff">
                  <path d="M0 630 L3815 630" stroke-width="13" />
                  <path d="M0 810 L3815 810" stroke-width="13" />
                  <path d="M0 990 L3815 990" stroke-width="13" />
                  <path d="M0 1170 L3815 1170" stroke-width="13" />
                  <path d="M0 1350 L3815 1350" stroke-width="13" />
                  <g data-id="m1agi4l6" data-class="clef" class="clef">
                     <use xlink:href="#E050-bu9xn3t" transform="translate(120, 1170) scale(0.72, 0.72)" />
                  </g>
                  <g data-id="n1gpltaz" data-class="keySig" class="keySig" />
                  <g data-id="o1v02773" data-class="meterSig" class="meterSig">
                     <use xlink:href="#E084-bu9xn3t" transform="translate(779, 810) scale(0.72, 0.72)" />
                     <use xlink:href="#E084-bu9xn3t" transform="translate(779, 1170) scale(0.72, 0.72)" />
                  </g>
                  <g data-class="ledgerLines" class="ledgerLines below">
                     <g data-class="lineDash" class="lineDash" data-related="#l4sdxn5">
                        <path d="M1324 1530 L1632 1530" stroke-width="22" />
                     </g>
                  </g>
                  <g data-id="k1ta5gl6" data-class="layer" class="layer">
                     <g data-id="m10rr922" data-class="chord" class="chord">
                        <g data-id="r2n783b" data-class="stem" class="stem">
                           <path d="M1575 1500 L1575 540" stroke-width="18" />
                        </g>
                        <g data-id="l4sdxn5" data-class="note" class="note">
                           <g data-class="notehead" class="notehead">
                              <use xlink:href="#E0A4-bu9xn3t" transform="translate(1372, 1530) scale(0.72, 0.72)" />
                           </g>
                        </g>
                        <g data-id="n1l8xa1z" data-class="note" class="note">
                           <g data-class="notehead" class="notehead">
                              <use xlink:href="#E0A4-bu9xn3t" transform="translate(1372, 1350) scale(0.72, 0.72)" />
                           </g>
                        </g>
                        <g data-id="o1mnkm7b" data-class="note" class="note">
                           <g data-class="notehead" class="notehead">
                              <use xlink:href="#E0A4-bu9xn3t" transform="translate(1372, 1170) scale(0.72, 0.72)" />
                           </g>
                        </g>
                     </g>
                     <g data-id="qxmy2fa" data-class="chord" class="chord">
                        <g data-id="s1xpsotw" data-class="stem" class="stem">
                           <path d="M2265 1410 L2265 450" stroke-width="18" />
                        </g>
                        <g data-id="pz5rqbx" data-class="note" class="note">
                           <g data-class="notehead" class="notehead">
                              <use xlink:href="#E0A4-bu9xn3t" transform="translate(2062, 1440) scale(0.72, 0.72)" />
                           </g>
                        </g>
                        <g data-id="r1lavyzq" data-class="note" class="note">
                           <g data-class="notehead" class="notehead">
                              <use xlink:href="#E0A4-bu9xn3t" transform="translate(2062, 1260) scale(0.72, 0.72)" />
                           </g>
                           <g data-id="szhk63u" data-class="accid" class="accid">
                              <use xlink:href="#E262-bu9xn3t" transform="translate(1838, 1260) scale(0.72, 0.72)" />
                           </g>
                        </g>
                        <g data-id="t1iwbzdr" data-class="note" class="note">
                           <g data-class="notehead" class="notehead">
                              <use xlink:href="#E0A4-bu9xn3t" transform="translate(2062, 1080) scale(0.72, 0.72)" />
                           </g>
                        </g>
                     </g>
                     <g data-id="v7k1kyl" data-class="chord" class="chord">
                        <g data-id="t1hkj4fb" data-class="stem" class="stem">
                           <path d="M2955 1320 L2955 390" stroke-width="18" />
                        </g>
                        <g data-id="u1ogy25v" data-class="note" class="note">
                           <g data-class="notehead" class="notehead">
                              <use xlink:href="#E0A3-bu9xn3t" transform="translate(2752, 1350) scale(0.72, 0.72)" />
                           </g>
                        </g>
                        <g data-id="x1ywpk2p" data-class="note" class="note">
                           <g data-class="notehead" class="notehead">
                              <use xlink:href="#E0A3-bu9xn3t" transform="translate(2752, 1170) scale(0.72, 0.72)" />
                           </g>
                           <g data-id="y10kgvz3" data-class="accid" class="accid">
                              <use xlink:href="#E262-bu9xn3t" transform="translate(2528, 1170) scale(0.72, 0.72)" />
                           </g>
                        </g>
                        <g data-id="a1k5ao5k" data-class="note" class="note">
                           <g data-class="notehead" class="notehead">
                              <use xlink:href="#E0A3-bu9xn3t" transform="translate(2752, 990) scale(0.72, 0.72)" />
                           </g>
                        </g>
                     </g>
                  </g>
               </g>
               <g data-id="nsoupnj" data-class="staff" class="staff">
                  <path d="M0 2430 L3815 2430" stroke-width="13" />
                  <path d="M0 2610 L3815 2610" stroke-width="13" />
                  <path d="M0 2790 L3815 2790" stroke-width="13" />
                  <path d="M0 2970 L3815 2970" stroke-width="13" />
                  <path d="M0 3150 L3815 3150" stroke-width="13" />
                  <g data-id="p1kuaybb" data-class="clef" class="clef">
                     <use xlink:href="#E062-bu9xn3t" transform="translate(120, 2610) scale(0.72, 0.72)" />
                  </g>
                  <g data-id="q1tpgd4f" data-class="keySig" class="keySig" />
                  <g data-id="r3dstvg" data-class="meterSig" class="meterSig">
                     <use xlink:href="#E084-bu9xn3t" transform="translate(779, 2610) scale(0.72, 0.72)" />
                     <use xlink:href="#E084-bu9xn3t" transform="translate(779, 2970) scale(0.72, 0.72)" />
                  </g>
                  <g data-class="ledgerLines" class="ledgerLines below">
                     <g data-class="lineDash" class="lineDash" data-related="#p1br0o1">
                        <path d="M1324 3330 L1722 3330" stroke-width="22" />
                     </g>
                     <g data-class="lineDash" class="lineDash" data-related="#p1br0o1">
                        <path d="M1324 3510 L1722 3510" stroke-width="22" />
                     </g>
                  </g>
                  <g data-id="o4m9dzf" data-class="layer" class="layer">
                     <g data-id="p1br0o1" data-class="note" class="note">
                        <g data-class="notehead" class="notehead">
                           <use xlink:href="#E0A2-bu9xn3t" transform="translate(1372, 3510) scale(0.72, 0.72)" />
                        </g>
                     </g>
                  </g>
               </g>
               <g data-id="wbol23e" data-class="tie" class="tie">
                  <path d="M3009,1395 C3249,1502 3708,1502 3950,1395 C3720,1550 3237,1550 3009,1395" stroke-linecap="round" stroke-linejoin="round" stroke-width="9" />
               </g>
               <g data-id="z12j712k" data-class="tie" class="tie">
                  <path d="M3009,1215 C3249,1322 3708,1322 3950,1215 C3720,1370 3237,1370 3009,1215" stroke-linecap="round" stroke-linejoin="round" stroke-width="9" />
               </g>
               <g data-id="b1qtkpzc" data-class="tie" class="tie">
                  <path d="M3009,945 C3238,792 3719,792 3950,945 C3707,840 3250,840 3009,945" stroke-linecap="round" stroke-linejoin="round" stroke-width="9" />
               </g>
               <g data-id="q1ush3s1" data-class="slur" class="slur">
                  <path d="M1523,3712 C2448,3817 3365,3596 4144,3082 C3390,3653 2451,3878 1523,3712" stroke-linecap="round" stroke-linejoin="round" stroke-width="9" />
               </g>
               <g data-id="i198sxaq" data-class="barLine" class="barLine">
                  <path d="M3802 630 L3802 1350" stroke-width="27" />
                  <path d="M3802 2430 L3802 3150" stroke-width="27" />
               </g>
            </g>
            <g data-id="cwk9eut" data-class="measure" class="measure">
               <g data-id="lzjnen3" data-class="staff" class="staff">
                  <path d="M3815 630 L6438 630" stroke-width="13" />
                  <path d="M3815 810 L6438 810" stroke-width="13" />
                  <path d="M3815 990 L6438 990" stroke-width="13" />
                  <path d="M3815 1170 L6438 1170" stroke-width="13" />
                  <path d="M3815 1350 L6438 1350" stroke-width="13" />
                  <g data-class="ledgerLines" class="ledgerLines above">
                     <g data-class="lineDash" class="lineDash" data-related="#sawaw3q">
                        <path d="M4997 450 L5305 450" stroke-width="22" />
                     </g>
                     <g data-class="lineDash" class="lineDash" data-related="#t10uenua">
                        <path d="M5687 450 L5995 450" stroke-width="22" />
                     </g>
                     <g data-class="lineDash" class="lineDash" data-related="#sawaw3q">
                        <path d="M4997 270 L5305 270" stroke-width="22" />
                     </g>
                     <g data-class="lineDash" class="lineDash" data-related="#t10uenua">
                        <path d="M5687 270 L5995 270" stroke-width="22" />
                     </g>
                     <g data-class="lineDash" class="lineDash" data-related="#t10uenua">
                        <path d="M5687 90 L5995 90" stroke-width="22" />
                     </g>
                  </g>
                  <g data-id="mwr7n5u" data-class="layer" class="layer">
                     <g data-id="o1jjkwo1" data-class="chord" class="chord">
                        <g data-id="v14exaxu" data-class="stem" class="stem">
                           <path d="M4198 1320 L4198 390" stroke-width="18" />
                        </g>
                        <g data-id="nw9yicv" data-class="note" class="note">
                           <g data-class="notehead" class="notehead">
                              <use xlink:href="#E0A3-bu9xn3t" transform="translate(3995, 1350) scale(0.72, 0.72)" />
                           </g>
                        </g>
                        <g data-id="p1sg8nrj" data-class="note" class="note">
                           <g data-class="notehead" class="notehead">
                              <use xlink:href="#E0A3-bu9xn3t" transform="translate(3995, 1170) scale(0.72, 0.72)" />
                           </g>
                           <g data-id="q18c044m" data-class="accid" class="accid" />
                        </g>
                        <g data-id="r1tj0mcs" data-class="note" class="note">
                           <g data-class="notehead" class="notehead">
                              <use xlink:href="#E0A3-bu9xn3t" transform="translate(3995, 990) scale(0.72, 0.72)" />
                           </g>
                        </g>
                     </g>
                     <g data-id="sawaw3q" data-class="note" class="note">
                        <g data-class="notehead" class="notehead">
                           <use xlink:href="#E0A4-bu9xn3t" transform="translate(5045, 270) scale(0.72, 0.72)" />
                        </g>
                        <g data-id="w1mbsnyn" data-class="stem" class="stem">
                           <path d="M5054 300 L5054 990" stroke-width="18" />
                        </g>
                     </g>
                     <g data-id="t10uenua" data-class="note" class="note">
                        <g data-class="notehead" class="notehead">
                           <use xlink:href="#E0A4-bu9xn3t" transform="translate(5735, 90) scale(0.72, 0.72)" />
                        </g>
                        <g data-id="x1gr4997" data-class="stem" class="stem">
                           <path d="M5744 120 L5744 990" stroke-width="18" />
                        </g>
                     </g>
                  </g>
               </g>
               <g data-id="axyxgec" data-class="staff" class="staff">
                  <path d="M3815 2430 L6438 2430" stroke-width="13" />
                  <path d="M3815 2610 L6438 2610" stroke-width="13" />
                  <path d="M3815 2790 L6438 2790" stroke-width="13" />
                  <path d="M3815 2970 L6438 2970" stroke-width="13" />
                  <path d="M3815 3150 L6438 3150" stroke-width="13" />
                  <g data-id="b236jt0" data-class="layer" class="layer">
                     <g data-id="cpr243e" data-class="note" class="note">
                        <g data-class="notehead" class="notehead">
                           <use xlink:href="#E0A2-bu9xn3t" transform="translate(3995, 2880) scale(0.72, 0.72)" />
                        </g>
                     </g>
                  </g>
               </g>
               <g data-id="k1oiyhn5" data-class="barLine" class="barLine">
                  <path d="M6425 630 L6425 1350" stroke-width="27" />
                  <path d="M6425 2430 L6425 3150" stroke-width="27" />
               </g>
            </g>
            <g data-id="k1lxtlu5" data-class="systemMilestoneEnd" class="systemMilestoneEnd o1mgxx6s" />
         </g>
         <g data-id="l1nc6roo" data-class="pageMilestoneEnd" class="pageMilestoneEnd m15u59b4" />
         <g data-id="m3kx0mb" data-class="pageMilestoneEnd" class="pageMilestoneEnd lg13bpd" />
      </g>
   </svg>
</svg>
