<svg xmlns="http://www.w3.org/2000/svg" xmlns:xlink="http://www.w3.org/1999/xlink" viewBox="0 0 1050 320" version="1.1" overflow="visible" id="g1ua1r9w">
   <desc>Engraved by Verovio 5.6.0[undefined]</desc>
   <defs>
      <g id="E050-g1ua1r9w">
         <path transform="scale(1,-1)" d="M376 415l25 -145c3 -18 3 -18 29 -18c147 0 241 -113 241 -241c0 -113 -67 -198 -168 -238c-14 -6 -15 -5 -13 -17c11 -62 29 -157 29 -214c0 -170 -130 -200 -197 -200c-151 0 -190 98 -190 163c0 62 40 115 107 115c61 0 96 -47 96 -102c0 -58 -36 -85 -67 -94 c-23 -7 -32 -10 -32 -17c0 -13 26 -29 80 -29c59 0 159 18 159 166c0 47 -15 134 -27 201c-2 12 -4 11 -15 9c-20 -4 -46 -6 -69 -6c-245 0 -364 165 -364 339c0 202 153 345 297 464c12 10 11 12 9 24c-7 41 -14 106 -14 164c0 104 24 229 98 311c20 22 51 48 65 48 c11 0 37 -28 52 -50c41 -60 65 -146 65 -233c0 -153 -82 -280 -190 -381c-6 -6 -8 -7 -6 -19zM470 943c-61 0 -133 -96 -133 -252c0 -32 2 -66 6 -92c2 -13 6 -14 13 -8c79 69 174 159 174 270c0 55 -27 82 -60 82zM361 262l-21 128c-2 11 -4 12 -14 4 c-47 -38 -93 -75 -153 -142c-83 -94 -93 -173 -93 -232c0 -139 113 -236 288 -236c20 0 40 2 56 5c15 3 16 3 14 14l-50 298c-2 11 -4 12 -20 8c-61 -17 -100 -60 -100 -117c0 -46 30 -89 72 -107c7 -3 15 -6 15 -13c0 -6 -4 -11 -12 -11c-7 0 -19 3 -27 6 c-68 23 -115 87 -115 177c0 85 57 164 145 194c18 6 18 5 15 24zM430 103l49 -285c2 -12 4 -12 16 -6c56 28 94 79 94 142c0 88 -67 156 -148 163c-12 1 -13 -2 -11 -14z" />
      </g>
      <g id="E0A4-g1ua1r9w">
         <path transform="scale(1,-1)" d="M97 -125c-54 0 -97 31 -97 83c0 86 88 167 198 167c57 0 97 -32 97 -83c0 -85 -109 -167 -198 -167z" />
      </g>
      <g id="E062-g1ua1r9w">
         <path transform="scale(1,-1)" d="M252 262c173 0 279 -116 279 -290c0 -304 -260 -482 -506 -602c-6 -3 -12 -5 -17 -5c-9 0 -13 6 -13 12c0 8 6 13 15 18c233 133 371 289 371 568c0 157 -46 261 -152 261c-102 0 -162 -73 -162 -113c0 -10 3 -18 16 -18s23 7 50 7c49 0 96 -40 96 -104 c0 -62 -43 -106 -106 -106c-81 0 -123 69 -123 149c0 96 78 223 252 223zM629 180c31 0 55 -24 55 -55s-24 -55 -55 -55s-55 24 -55 55s24 55 55 55zM630 -71c31 0 54 -23 54 -54s-23 -54 -54 -54s-54 23 -54 54s23 54 54 54z" />
      </g>
      <g id="E0A2-g1ua1r9w">
         <path transform="scale(1,-1)" d="M216 125c93 0 206 -52 206 -123c0 -70 -52 -127 -216 -127c-149 0 -206 60 -206 127c0 68 83 123 216 123zM111 63c-2 -8 -3 -16 -3 -24c0 -32 15 -66 35 -89c21 -28 58 -52 94 -52c10 0 21 1 31 4c33 8 46 36 46 67c0 60 -55 134 -124 134c-31 0 -68 -5 -79 -40z" />
      </g>
      <g id="E241-g1ua1r9w">
         <path transform="scale(1,-1)" d="M240 760c-10 29 7 48 22 48c7 0 13 -4 16 -15c8 -32 28 -103 28 -181c0 -125 -61 -244 -124 -343c-51 -79 -125 -166 -142 -261c-2 -16 -15 -22 -24 -22c-8 0 -16 5 -16 15v235c134 45 184 126 221 210c15 34 40 118 40 177c0 45 -7 95 -21 137z" />
      </g>
   </defs>
   <style type="text/css">#g1ua1r9w g.page-margin {font-family:Times,serif;}#g1ua1r9w g.ending, #g1ua1r9w g.fing, #g1ua1r9w g.reh, #g1ua1r9w g.tempo {font-weight:bold;}#g1ua1r9w g.dir, #g1ua1r9w g.dynam, #g1ua1r9w g.mNum {font-style:italic;}#g1ua1r9w g.label {font-weight:normal;}#g1ua1r9w path {stroke:currentColor}</style>
   <svg class="definition-scale" color="black" viewBox="0 0 21000 6400">
      <g class="page-margin" transform="translate(500, 500)">
         <g data-id="q19njup3" data-class="mdiv" class="mdiv pageMilestone" />
         <g data-id="rgsjqse" data-class="score" class="score pageMilestone" />
         <g data-id="nn88pol" data-class="system" class="system">
            <path d="M1523 540 L1523 4860" stroke-width="27" />
            <g data-id="i1xdecqx" data-class="grpSym" class="grpSym">
               <path d="M1438,3042 C1078,2502 1528,1980 1258,1800 C1591,1980 1141,2502 1438,3042" stroke-linecap="round" stroke-linejoin="round" stroke-width="18" />
               <path d="M1438,558 C1141,1098 1591,1620 1258,1800 C1528,1620 1078,1098 1438,558" stroke-linecap="round" stroke-linejoin="round" stroke-width="18" />
            </g>
            <g data-id="j1cipimo" data-class="label" class="label">
               <text x="1105" y="1890" text-anchor="end" font-size="0px">
                  <tspan data-id="k3pizr6" data-class="text" class="text">
                     <tspan font-size="405px">Piano</tspan>
                  </tspan>
               </text>
            </g>
            <g data-id="e4xn8nj" data-class="label" class="label">
               <text x="1330" y="4590" text-anchor="end" font-size="0px">
                  <tspan data-id="f2u7lfy" data-class="text" class="text">
                     <tspan font-size="405px">Flute</tspan>
                  </tspan>
               </text>
            </g>
            <g data-id="t2orywd" data-class="section" class="section systemMilestone" />
            <g data-id="ru48c21" data-class="measure" class="measure">
               <g data-id="a124cgsf" data-class="staff" class="staff">
                  <path d="M1510 540 L6046 540" stroke-width="13" />
                  <path d="M1510 720 L6046 720" stroke-width="13" />
                  <path d="M1510 900 L6046 900" stroke-width="13" />
                  <path d="M1510 1080 L6046 1080" stroke-width="13" />
                  <path d="M1510 1260 L6046 1260" stroke-width="13" />
                  <g data-id="y18xdjtc" data-class="clef" class="clef">
                     <use xlink:href="#E050-g1ua1r9w" transform="translate(1630, 1080) scale(0.72, 0.72)" />
                  </g>
                  <g data-id="z1gmrc7a" data-class="keySig" class="keySig" />
                  <g data-class="ledgerLines" class="ledgerLines below">
                     <g data-class="lineDash" class="lineDash" data-related="#d14n9ub6">
                        <path d="M2345 1440 L2653 1440" stroke-width="22" />
                     </g>
                  </g>
                  <g data-id="cs9uql0" data-class="layer" class="layer">
                     <g data-id="e91qctm" data-class="chord" class="chord">
                        <g data-id="e1f5fy3r" data-class="stem" class="stem">
                           <path d="M2596 1410 L2596 630" stroke-width="18" />
                        </g>
                        <g data-id="d14n9ub6" data-class="note" class="note" fill="#000001" stroke="#000001" color="#000001" style="fill:#000001;stroke:#000001;color:#000001">
                           <g data-class="notehead" class="notehead">
                              <use xlink:href="#E0A4-g1ua1r9w" transform="translate(2393, 1440) scale(0.72, 0.72)" />
                           </g>
                        </g>
                        <g data-id="gdje2wi" data-class="note" class="note" fill="#000002" stroke="#000002" color="#000002" style="fill:#000002;stroke:#000002;color:#000002">
                           <g data-class="notehead" class="notehead">
                              <use xlink:href="#E0A4-g1ua1r9w" transform="translate(2393, 1260) scale(0.72, 0.72)" />
                           </g>
                        </g>
                     </g>
                     <g data-id="h9lcuc7" data-class="note" class="note" fill="#000003" stroke="#000003" color="#000003" style="fill:#000003;stroke:#000003;color:#000003">
                        <g data-class="notehead" class="notehead">
                           <use xlink:href="#E0A4-g1ua1r9w" transform="translate(3293, 1260) scale(0.72, 0.72)" />
                        </g>
                        <g data-id="fognjm1" data-class="stem" class="stem">
                           <path d="M3496 1230 L3496 630" stroke-width="18" />
                        </g>
                     </g>
                     <g data-id="i1xfw3q6" data-class="note" class="note" fill="#000004" stroke="#000004" color="#000004" style="fill:#000004;stroke:#000004;color:#000004">
                        <g data-class="notehead" class="notehead">
                           <use xlink:href="#E0A4-g1ua1r9w" transform="translate(4193, 1080) scale(0.72, 0.72)" />
                        </g>
                        <g data-id="g1aw4f2k" data-class="stem" class="stem">
                           <path d="M4396 1050 L4396 450" stroke-width="18" />
                        </g>
                     </g>
                     <g data-id="j1sutdzb" data-class="note" class="note" fill="#000005" stroke="#000005" color="#000005" style="fill:#000005;stroke:#000005;color:#000005">
                        <g data-class="notehead" class="notehead">
                           <use xlink:href="#E0A4-g1ua1r9w" transform="translate(5093, 810) scale(0.72, 0.72)" />
                        </g>
                        <g data-id="hjvr3ec" data-class="stem" class="stem">
                           <path d="M5102 840 L5102 1440" stroke-width="18" />
                        </g>
                     </g>
                  </g>
               </g>
               <g data-id="b1ybemjd" data-class="staff" class="staff">
                  <path d="M1510 2340 L6046 2340" stroke-width="13" />
                  <path d="M1510 2520 L6046 2520" stroke-width="13" />
                  <path d="M1510 2700 L6046 2700" stroke-width="13" />
                  <path d="M1510 2880 L6046 2880" stroke-width="13" />
                  <path d="M1510 3060 L6046 3060" stroke-width="13" />
                  <g data-id="aj6b95u" data-class="clef" class="clef">
                     <use xlink:href="#E062-g1ua1r9w" transform="translate(1630, 2520) scale(0.72, 0.72)" />
                  </g>
                  <g data-id="b1mfi2nd" data-class="keySig" class="keySig" />
                  <g data-id="k1yqtnip" data-class="layer" class="layer">
                     <g data-id="lj0d586" data-class="note" class="note" fill="#000006" stroke="#000006" color="#000006" style="fill:#000006;stroke:#000006;color:#000006">
                        <g data-class="notehead" class="notehead">
                           <use xlink:href="#E0A2-g1ua1r9w" transform="translate(2393, 2790) scale(0.72, 0.72)" />
                        </g>
                     </g>
                  </g>
               </g>
               <g data-id="h1fea4kk" data-class="staff" class="staff">
                  <path d="M1510 4140 L6046 4140" stroke-width="13" />
                  <path d="M1510 4320 L6046 4320" stroke-width="13" />
                  <path d="M1510 4500 L6046 4500" stroke-width="13" />
                  <path d="M1510 4680 L6046 4680" stroke-width="13" />
                  <path d="M1510 4860 L6046 4860" stroke-width="13" />
                  <g data-id="cmkv9mo" data-class="clef" class="clef">
                     <use xlink:href="#E050-g1ua1r9w" transform="translate(1630, 4680) scale(0.72, 0.72)" />
                  </g>
                  <g data-id="d1rnu7dy" data-class="keySig" class="keySig" />
                  <g data-class="ledgerLines" class="ledgerLines above">
                     <g data-class="lineDash" class="lineDash" data-related="#j14o9lpb">
                        <path d="M2345 3960 L2653 3960" stroke-width="22" />
                     </g>
                     <g data-class="lineDash" class="lineDash" data-related="#k7x6k8u">
                        <path d="M2795 3960 L3103 3960" stroke-width="22" />
                     </g>
                     <g data-class="lineDash" class="lineDash" data-related="#lr1fyfi">
                        <path d="M3245 3960 L3553 3960" stroke-width="22" />
                     </g>
                     <g data-class="lineDash" class="lineDash" data-related="#j14o9lpb">
                        <path d="M2345 3780 L2653 3780" stroke-width="22" />
                     </g>
                  </g>
                  <g data-id="i1hz626m" data-class="layer" class="layer">
                     <g data-id="j14o9lpb" data-class="note" class="note" fill="#000007" stroke="#000007" color="#000007" style="fill:#000007;stroke:#000007;color:#000007">
                        <g data-class="notehead" class="notehead">
                           <use xlink:href="#E0A4-g1ua1r9w" transform="translate(2393, 3780) scale(0.72, 0.72)" />
                        </g>
                        <g data-id="j1yy26tw" data-class="stem" class="stem">
                           <path d="M2402 3810 L2402 4590" stroke-width="18" />
                           <g data-id="k1y24if1" data-class="flag" class="flag">
                              <use xlink:href="#E241-g1ua1r9w" transform="translate(2393, 4590) scale(0.72, 0.72)" />
                           </g>
                        </g>
                     </g>
                     <g data-id="k7x6k8u" data-class="note" class="note" fill="#000008" stroke="#000008" color="#000008" style="fill:#000008;stroke:#000008;color:#000008">
                        <g data-class="notehead" class="notehead">
                           <use xlink:href="#E0A4-g1ua1r9w" transform="translate(2843, 3870) scale(0.72, 0.72)" />
                        </g>
                        <g data-id="l1gthdm" data-class="stem" class="stem">
                           <path d="M2852 3900 L2852 4590" stroke-width="18" />
                           <g data-id="m15v0vpn" data-class="flag" class="flag">
                              <use xlink:href="#E241-g1ua1r9w" transform="translate(2843, 4590) scale(0.72, 0.72)" />
                           </g>
                        </g>
                     </g>
                     <g data-id="lr1fyfi" data-class="note" class="note" fill="#000009" stroke="#000009" color="#000009" style="fill:#000009;stroke:#000009;color:#000009">
                        <g data-class="notehead" class="notehead">
                           <use xlink:href="#E0A4-g1ua1r9w" transform="translate(3293, 3960) scale(0.72, 0.72)" />
                        </g>
                        <g data-id="nhh6mep" data-class="stem" class="stem">
                           <path d="M3302 3990 L3302 4590" stroke-width="18" />
                           <g data-id="orq0lbt" data-class="flag" class="flag">
                              <use xlink:href="#E241-g1ua1r9w" transform="translate(3293, 4590) scale(0.72, 0.72)" />
                           </g>
                        </g>
                     </g>
                     <g data-id="m1redr5v" data-class="note" class="note" fill="#00000a" stroke="#00000a" color="#00000a" style="fill:#00000a;stroke:#00000a;color:#00000a">
                        <g data-class="notehead" class="notehead">
                           <use xlink:href="#E0A4-g1ua1r9w" transform="translate(3743, 4050) scale(0.72, 0.72)" />
                        </g>
                        <g data-id="p1kymx5b" data-class="stem" class="stem">
                           <path d="M3752 4080 L3752 4680" stroke-width="18" />
                           <g data-id="qnif0ua" data-class="flag" class="flag">
                              <use xlink:href="#E241-g1ua1r9w" transform="translate(3743, 4680) scale(0.72, 0.72)" />
                           </g>
                        </g>
                     </g>
                     <g data-id="nqb75kr" data-class="note" class="note" fill="#00000b" stroke="#00000b" color="#00000b" style="fill:#00000b;stroke:#00000b;color:#00000b">
                        <g data-class="notehead" class="notehead">
                           <use xlink:href="#E0A4-g1ua1r9w" transform="translate(4193, 4140) scale(0.72, 0.72)" />
                        </g>
                        <g data-id="r3wchii" data-class="stem" class="stem">
                           <path d="M4202 4170 L4202 4770" stroke-width="18" />
                           <g data-id="s1b1pyxd" data-class="flag" class="flag">
                              <use xlink:href="#E241-g1ua1r9w" transform="translate(4193, 4770) scale(0.72, 0.72)" />
                           </g>
                        </g>
                     </g>
                     <g data-id="o18fvo0k" data-class="note" class="note" fill="#00000c" stroke="#00000c" color="#00000c" style="fill:#00000c;stroke:#00000c;color:#00000c">
                        <g data-class="notehead" class="notehead">
                           <use xlink:href="#E0A4-g1ua1r9w" transform="translate(4643, 4230) scale(0.72, 0.72)" />
                        </g>
                        <g data-id="t1xkqo9p" data-class="stem" class="stem">
                           <path d="M4652 4260 L4652 4860" stroke-width="18" />
                           <g data-id="ud9og8h" data-class="flag" class="flag">
                              <use xlink:href="#E241-g1ua1r9w" transform="translate(4643, 4860) scale(0.72, 0.72)" />
                           </g>
                        </g>
                     </g>
                     <g data-id="peuyrg3" data-class="note" class="note" fill="#00000d" stroke="#00000d" color="#00000d" style="fill:#00000d;stroke:#00000d;color:#00000d">
                        <g data-class="notehead" class="notehead">
                           <use xlink:href="#E0A4-g1ua1r9w" transform="translate(5093, 4320) scale(0.72, 0.72)" />
                        </g>
                        <g data-id="v11hvizm" data-class="stem" class="stem">
                           <path d="M5102 4350 L5102 4950" stroke-width="18" />
                           <g data-id="wn7x99l" data-class="flag" class="flag">
                              <use xlink:href="#E241-g1ua1r9w" transform="translate(5093, 4950) scale(0.72, 0.72)" />
                           </g>
                        </g>
                     </g>
                     <g data-id="rdbpd2f" data-class="note" class="note" fill="#00000e" stroke="#00000e" color="#00000e" style="fill:#00000e;stroke:#00000e;color:#00000e">
                        <g data-class="notehead" class="notehead">
                           <use xlink:href="#E0A4-g1ua1r9w" transform="translate(5583, 4320) scale(0.72, 0.72)" />
                        </g>
                        <g data-id="x1cgh32x" data-class="stem" class="stem">
                           <path d="M5592 4350 L5592 4950" stroke-width="18" />
                           <g data-id="yync3p6" data-class="flag" class="flag">
                              <use xlink:href="#E241-g1ua1r9w" transform="translate(5583, 4950) scale(0.72, 0.72)" />
                           </g>
                        </g>
                     </g>
                  </g>
               </g>
               <g data-id="fsifyc" data-class="slur" class="slur" fill="#00000f" stroke="#00000f" color="#00000f" style="fill:#00000f;stroke:#00000f;color:#00000f">
                  <path d="M2679,877 C3342,243 4748,121 5197,607 C4727,181 3367,301 2679,877" stroke-linecap="round" stroke-linejoin="round" stroke-width="9" />
               </g>
               <g data-id="qv3fmbf" data-class="tie" class="tie" fill="#000010" stroke="#000010" color="#000010" style="fill:#000010;stroke:#000010;color:#000010">
                  <path d="M5350,4275 C5380,4123 5507,4123 5538,4275 C5474,4169 5413,4169 5350,4275" stroke-linecap="round" stroke-linejoin="round" stroke-width="9" />
               </g>
               <g data-id="z2uyvz9" data-class="barLine" class="barLine">
                  <path d="M6033 540 L6033 1260" stroke-width="27" />
                  <path d="M6033 2340 L6033 3060" stroke-width="27" />
                  <path d="M6033 1260 L6033 2340" stroke-width="27" />
                  <path d="M6033 4140 L6033 4860" stroke-width="27" />
               </g>
            </g>
            <g data-id="zs0z05c" data-class="systemMilestoneEnd" class="systemMilestoneEnd t2orywd" />
         </g>
         <g data-id="af4zjpr" data-class="pageMilestoneEnd" class="pageMilestoneEnd rgsjqse" />
         <g data-id="bbxqrkd" data-class="pageMilestoneEnd" class="pageMilestoneEnd q19njup3" />
      </g>
   </svg>
</svg>