<svg xmlns="http://www.w3.org/2000/svg" xmlns:xlink="http://www.w3.org/1999/xlink" viewBox="0 0 1050 140" version="1.1" overflow="visible" id="tgdcp6k">
   <desc>Engraved by Verovio 5.6.0[undefined]</desc>
   <defs>
      <g id="E050-tgdcp6k">
         <path transform="scale(1,-1)" d="M376 415l25 -145c3 -18 3 -18 29 -18c147 0 241 -113 241 -241c0 -113 -67 -198 -168 -238c-14 -6 -15 -5 -13 -17c11 -62 29 -157 29 -214c0 -170 -130 -200 -197 -200c-151 0 -190 98 -190 163c0 62 40 115 107 115c61 0 96 -47 96 -102c0 -58 -36 -85 -67 -94 c-23 -7 -32 -10 -32 -17c0 -13 26 -29 80 -29c59 0 159 18 159 166c0 47 -15 134 -27 201c-2 12 -4 11 -15 9c-20 -4 -46 -6 -69 -6c-245 0 -364 165 -364 339c0 202 153 345 297 464c12 10 11 12 9 24c-7 41 -14 106 -14 164c0 104 24 229 98 311c20 22 51 48 65 48 c11 0 37 -28 52 -50c41 -60 65 -146 65 -233c0 -153 -82 -280 -190 -381c-6 -6 -8 -7 -6 -19zM470 943c-61 0 -133 -96 -133 -252c0 -32 2 -66 6 -92c2 -13 6 -14 13 -8c79 69 174 159 174 270c0 55 -27 82 -60 82zM361 262l-21 128c-2 11 -4 12 -14 4 c-47 -38 -93 -75 -153 -142c-83 -94 -93 -173 -93 -232c0 -139 113 -236 288 -236c20 0 40 2 56 5c15 3 16 3 14 14l-50 298c-2 11 -4 12 -20 8c-61 -17 -100 -60 -100 -117c0 -46 30 -89 72 -107c7 -3 15 -6 15 -13c0 -6 -4 -11 -12 -11c-7 0 -19 3 -27 6 c-68 23 -115 87 -115 177c0 85 57 164 145 194c18 6 18 5 15 24zM430 103l49 -285c2 -12 4 -12 16 -6c56 28 94 79 94 142c0 88 -67 156 -148 163c-12 1 -13 -2 -11 -14z" />
      </g>
      <g id="E084-tgdcp6k">
         <path transform="scale(1,-1)" d="M362 -74h73c11 0 15 -7 15 -19s-5 -19 -15 -19h-73v-59c0 -32 21 -38 31 -38s22 -6 22 -20s-10 -21 -20 -21h-213c-15 0 -19 11 -19 21s7 19 23 19c18 0 40 8 40 35v63h-186c-12 0 -20 7 -20 17c0 3 1 7 3 12l1 1v1l6 8c30 42 128 181 128 305c0 16 14 19 23 19 c8 0 53 -2 71 -2s59 2 68 2c8 0 15 -6 15 -15l-1 -3c-3 -12 -163 -239 -243 -307h135v84c0 12 5 18 9 23l95 115c6 7 11 9 20 9c11 0 12 -9 12 -17v-214z" />
      </g>
      <g id="E0A4-tgdcp6k">
         <path transform="scale(1,-1)" d="M97 -125c-54 0 -97 31 -97 83c0 86 88 167 198 167c57 0 97 -32 97 -83c0 -85 -109 -167 -198 -167z" />
      </g>
      <g id="E4E5-tgdcp6k">
         <path transform="scale(1,-1)" d="M78 -38l-49 60s-10 10 -10 24c0 8 4 19 14 29c45 47 60 90 60 127c0 72 -57 123 -61 134c-3 6 -4 11 -4 16c0 14 10 21 20 21c6 0 13 -3 18 -8c17 -17 165 -193 165 -193s4 -9 4 -19c0 -5 -1 -10 -4 -15c-26 -41 -62 -89 -66 -147v-3l-1 -7v-3c0 -56 31 -93 69 -139 c11 -12 37 -45 37 -57c0 -3 -2 -4 -5 -4c-2 0 -4 0 -8 1l-1 1c-17 6 -50 17 -79 17c-42 0 -63 -32 -63 -73c0 -9 1 -18 4 -26c2 -9 13 -36 26 -36c8 -7 16 -15 16 -24c0 -2 -1 -4 -2 -7c-1 -4 -8 -6 -15 -6c-8 0 -18 3 -26 9c-73 56 -116 105 -116 155c0 49 34 96 86 96 l8 -3h4c4 -1 12 -3 16 -3c5 0 9 1 11 5c1 1 1 3 1 4c0 2 -4 10 -6 14c-13 21 -27 40 -43 60z" />
      </g>
      <g id="E4E6-tgdcp6k">
         <path transform="scale(1,-1)" d="M134 107v-10c33 0 83 60 90 66c6 4 9 4 11 4c2 -1 12 -6 12 -16c-1 -5 -6 -21 -10 -39c0 0 -98 -351 -101 -353c-10 -8 -24 -10 -35 -10c-6 0 -29 1 -29 13c18 66 90 265 93 280c1 4 1 8 1 11c0 5 -1 9 -5 9c-1 0 -3 0 -5 -1c-13 -7 -22 -11 -36 -15 c-11 -4 -25 -7 -39 -7c-19 0 -38 6 -54 17c-15 12 -27 30 -27 51c0 37 30 67 67 67s67 -30 67 -67z" />
      </g>
      <g id="E240-tgdcp6k">
         <path transform="scale(1,-1)" d="M238 -790c-5 -17 -22 -23 -28 -19s-16 13 -16 29c0 4 1 9 3 15c17 45 24 92 24 137c0 59 -9 116 -24 150c-36 85 -131 221 -197 233v239c0 12 8 15 19 15c10 0 18 -6 21 -22c16 -96 58 -182 109 -261c63 -100 115 -218 115 -343c0 -78 -26 -173 -26 -173z" />
      </g>
      <g id="E4E7-tgdcp6k">
         <path transform="scale(1,-1)" d="M208 111v-10c34 1 84 61 91 67c3 2 6 4 11 4c2 -1 10 -5 10 -11c0 -1 -1 -2 -1 -4c-2 -13 -27 -101 -27 -101s-19 -67 -45 -152l-116 -381c-4 -11 -9 -23 -38 -23c-22 0 -31 10 -31 19l1 1v1l95 283v1l1 1c0 4 -2 6 -4 6c-23 -12 -49 -21 -75 -21c-38 0 -80 27 -80 68 c0 38 30 68 68 68c37 0 68 -30 68 -68c0 -3 0 -6 -1 -10c14 0 41 12 49 31c7 15 58 164 58 180c0 5 -2 7 -5 7c-2 0 -4 -1 -7 -2c-23 -13 -51 -22 -78 -22c-38 0 -80 27 -80 68c0 38 31 68 68 68c38 0 68 -30 68 -68z" />
      </g>
      <g id="E243-tgdcp6k">
         <path transform="scale(1,-1)" d="M240 786c-3 17 5 25 17 26c12 0 19 1 24 -22c16 -80 15 -178 -21 -253c0 -3 -1 -5 -1 -9c0 -3 0 -5 1 -7c3 -6 25 -66 25 -127c0 -13 -1 -25 -3 -36c-24 -157 -221 -200 -245 -354c-2 -11 -13 -13 -20 -13c-10 0 -17 5 -17 10v387h5c62 2 143 5 212 145 c38 78 38 169 23 253zM226 456c-3 0 -5 -1 -7 -4c-16 -26 -33 -46 -54 -69c-47 -55 -103 -78 -124 -160c-1 -1 -1 -2 -1 -3c0 -5 6 -10 14 -10h8c61 0 125 56 158 105c18 26 27 56 27 89c0 6 0 13 -1 20c-2 8 -2 18 -7 25c-1 4 -8 7 -13 7z" />
      </g>
      <g id="E4E4-tgdcp6k">
         <path transform="scale(1,-1)" d="M282 24c0 -14 -12 -26 -26 -26h-230c-15 0 -26 12 -26 26v92c0 15 11 26 26 26h230c14 0 26 -11 26 -26v-92z" />
      </g>
      <g id="E4E3-tgdcp6k">
         <path transform="scale(1,-1)" d="M282 -109c0 -14 -12 -26 -26 -26h-230c-15 0 -26 12 -26 26v92c0 15 11 26 26 26h230c14 0 26 -11 26 -26v-92z" />
      </g>
   </defs>
   <style type="text/css">#tgdcp6k g.page-margin {font-family:Times,serif;}#tgdcp6k g.ending, #tgdcp6k g.fing, #tgdcp6k g.reh, #tgdcp6k g.tempo {font-weight:bold;}#tgdcp6k g.dir, #tgdcp6k g.dynam, #tgdcp6k g.mNum {font-style:italic;}#tgdcp6k g.label {font-weight:normal;}#tgdcp6k path {stroke:currentColor}</style>
   <svg class="definition-scale" color="black" viewBox="0 0 21000 2800">
      <g class="page-margin" transform="translate(500, 500)">
         <g data-id="de6xz4s" data-class="mdiv" class="mdiv pageMilestone" />
         <g data-id="e44g46s" data-class="score" class="score pageMilestone" />
         <g data-id="mn39pf2" data-class="system" class="system">
            <g data-id="svbpqui" data-class="label" class="label">
               <text x="1861" y="990" text-anchor="end" font-size="0px">
                  <tspan data-id="tfxot1x" data-class="text" class="text">
                     <tspan font-size="405px">Rests Test</tspan>
                  </tspan>
               </text>
            </g>
            <g data-id="gok3yln" data-class="section" class="section systemMilestone" />
            <g data-id="vwwk6du" data-class="measure" class="measure">
               <g data-id="e1kkhvtd" data-class="staff" class="staff">
                  <path d="M2041 540 L6628 540" stroke-width="13" />
                  <path d="M2041 720 L6628 720" stroke-width="13" />
                  <path d="M2041 900 L6628 900" stroke-width="13" />
                  <path d="M2041 1080 L6628 1080" stroke-width="13" />
                  <path d="M2041 1260 L6628 1260" stroke-width="13" />
                  <g data-id="s1y4u5hg" data-class="clef" class="clef">
                     <use xlink:href="#E050-tgdcp6k" transform="translate(2131, 1080) scale(0.72, 0.72)" />
                  </g>
                  <g data-id="t1jybzw" data-class="keySig" class="keySig" />
                  <g data-id="u1cs3o2m" data-class="meterSig" class="meterSig">
                     <use xlink:href="#E084-tgdcp6k" transform="translate(2780, 720) scale(0.72, 0.72)" />
                     <use xlink:href="#E084-tgdcp6k" transform="translate(2780, 1080) scale(0.72, 0.72)" />
                  </g>
                  <g data-class="ledgerLines" class="ledgerLines below">
                     <g data-class="lineDash" class="lineDash" data-related="#gmcuyu2">
                        <path d="M3325 1440 L3633 1440" stroke-width="22" />
                     </g>
                  </g>
                  <g data-id="f8qsrph" data-class="layer" class="layer">
                     <g data-id="gmcuyu2" data-class="note" class="note" fill="#000001" stroke="#000001" color="#000001" style="fill:#000001;stroke:#000001;color:#000001">
                        <g data-class="notehead" class="notehead" fill="#000001" stroke="#000001" color="#000001" style="fill:#000001;stroke:#000001;color:#000001">
                           <use xlink:href="#E0A4-tgdcp6k" transform="translate(3373, 1440) scale(0.72, 0.72)" fill="#000001" stroke="#000001" color="#000001" style="fill:#000001;stroke:#000001;color:#000001" />
                        </g>
                        <g data-id="f1jps7oq" data-class="stem" class="stem" fill="#000001" stroke="#000001" color="#000001" style="fill:#000001;stroke:#000001;color:#000001">
                           <path d="M3576 1410 L3576 810" stroke-width="18" fill="#000001" stroke="#000001" color="#000001" style="fill:#000001;stroke:#000001;color:#000001" />
                        </g>
                     </g>
                     <g data-id="h11vykez" data-class="rest" class="rest" fill="#000002" stroke="#000002" color="#000002" style="fill:#000002;stroke:#000002;color:#000002">
                        <use xlink:href="#E4E5-tgdcp6k" transform="translate(4063, 900) scale(0.72, 0.72)" fill="#000002" stroke="#000002" color="#000002" style="fill:#000002;stroke:#000002;color:#000002" />
                     </g>
                     <g data-id="i1v7h7oz" data-class="rest" class="rest" fill="#000003" stroke="#000003" color="#000003" style="fill:#000003;stroke:#000003;color:#000003">
                        <use xlink:href="#E4E6-tgdcp6k" transform="translate(4753, 900) scale(0.72, 0.72)" fill="#000003" stroke="#000003" color="#000003" style="fill:#000003;stroke:#000003;color:#000003" />
                     </g>
                     <g data-id="jt7f57o" data-class="note" class="note" fill="#000004" stroke="#000004" color="#000004" style="fill:#000004;stroke:#000004;color:#000004">
                        <g data-class="notehead" class="notehead" fill="#000004" stroke="#000004" color="#000004" style="fill:#000004;stroke:#000004;color:#000004">
                           <use xlink:href="#E0A4-tgdcp6k" transform="translate(5203, 1260) scale(0.72, 0.72)" fill="#000004" stroke="#000004" color="#000004" style="fill:#000004;stroke:#000004;color:#000004" />
                        </g>
                        <g data-id="g5p4zvu" data-class="stem" class="stem" fill="#000004" stroke="#000004" color="#000004" style="fill:#000004;stroke:#000004;color:#000004">
                           <path d="M5406 1230 L5406 630" stroke-width="18" fill="#000004" stroke="#000004" color="#000004" style="fill:#000004;stroke:#000004;color:#000004" />
                           <g data-id="h1a9r2fo" data-class="flag" class="flag" fill="#000004" stroke="#000004" color="#000004" style="fill:#000004;stroke:#000004;color:#000004">
                              <use xlink:href="#E240-tgdcp6k" transform="translate(5397, 630) scale(0.72, 0.72)" fill="#000004" stroke="#000004" color="#000004" style="fill:#000004;stroke:#000004;color:#000004" />
                           </g>
                        </g>
                     </g>
                     <g data-id="k1h97nbo" data-class="rest" class="rest" fill="#000005" stroke="#000005" color="#000005" style="fill:#000005;stroke:#000005;color:#000005">
                        <use xlink:href="#E4E6-tgdcp6k" transform="translate(5677, 900) scale(0.72, 0.72)" fill="#000005" stroke="#000005" color="#000005" style="fill:#000005;stroke:#000005;color:#000005" />
                     </g>
                     <g data-id="l1fu1jde" data-class="note" class="note" fill="#000006" stroke="#000006" color="#000006" style="fill:#000006;stroke:#000006;color:#000006">
                        <g data-class="notehead" class="notehead" fill="#000006" stroke="#000006" color="#000006" style="fill:#000006;stroke:#000006;color:#000006">
                           <use xlink:href="#E0A4-tgdcp6k" transform="translate(6127, 1080) scale(0.72, 0.72)" fill="#000006" stroke="#000006" color="#000006" style="fill:#000006;stroke:#000006;color:#000006" />
                        </g>
                        <g data-id="ibvyhv" data-class="stem" class="stem" fill="#000006" stroke="#000006" color="#000006" style="fill:#000006;stroke:#000006;color:#000006">
                           <path d="M6330 1050 L6330 450" stroke-width="18" fill="#000006" stroke="#000006" color="#000006" style="fill:#000006;stroke:#000006;color:#000006" />
                           <g data-id="j1tfcixu" data-class="flag" class="flag" fill="#000006" stroke="#000006" color="#000006" style="fill:#000006;stroke:#000006;color:#000006">
                              <use xlink:href="#E240-tgdcp6k" transform="translate(6321, 450) scale(0.72, 0.72)" fill="#000006" stroke="#000006" color="#000006" style="fill:#000006;stroke:#000006;color:#000006" />
                           </g>
                        </g>
                     </g>
                  </g>
               </g>
               <g data-id="deyivae" data-class="barLine" class="barLine">
                  <path d="M6615 540 L6615 1260" stroke-width="27" />
               </g>
            </g>
            <g data-id="m121w3k1" data-class="measure" class="measure">
               <g data-id="v1vcp69p" data-class="staff" class="staff">
                  <path d="M6628 540 L9805 540" stroke-width="13" />
                  <path d="M6628 720 L9805 720" stroke-width="13" />
                  <path d="M6628 900 L9805 900" stroke-width="13" />
                  <path d="M6628 1080 L9805 1080" stroke-width="13" />
                  <path d="M6628 1260 L9805 1260" stroke-width="13" />
                  <g data-id="w1fi4ilc" data-class="layer" class="layer">
                     <g data-id="x1m5i9yb" data-class="rest" class="rest" fill="#000007" stroke="#000007" color="#000007" style="fill:#000007;stroke:#000007;color:#000007">
                        <use xlink:href="#E4E7-tgdcp6k" transform="translate(6808, 900) scale(0.72, 0.72)" fill="#000007" stroke="#000007" color="#000007" style="fill:#000007;stroke:#000007;color:#000007" />
                     </g>
                     <g data-id="ykovukg" data-class="note" class="note" fill="#000008" stroke="#000008" color="#000008" style="fill:#000008;stroke:#000008;color:#000008">
                        <g data-class="notehead" class="notehead" fill="#000008" stroke="#000008" color="#000008" style="fill:#000008;stroke:#000008;color:#000008">
                           <use xlink:href="#E0A4-tgdcp6k" transform="translate(7128, 810) scale(0.72, 0.72)" fill="#000008" stroke="#000008" color="#000008" style="fill:#000008;stroke:#000008;color:#000008" />
                        </g>
                        <g data-id="kwwntkd" data-class="stem" class="stem" fill="#000008" stroke="#000008" color="#000008" style="fill:#000008;stroke:#000008;color:#000008">
                           <path d="M7137 840 L7137 1440" stroke-width="18" fill="#000008" stroke="#000008" color="#000008" style="fill:#000008;stroke:#000008;color:#000008" />
                           <g data-id="l8oypis" data-class="flag" class="flag" fill="#000008" stroke="#000008" color="#000008" style="fill:#000008;stroke:#000008;color:#000008">
                              <use xlink:href="#E243-tgdcp6k" transform="translate(7128, 1440) scale(0.72, 0.72)" fill="#000008" stroke="#000008" color="#000008" style="fill:#000008;stroke:#000008;color:#000008" />
                           </g>
                        </g>
                     </g>
                     <g data-id="z1ct7pqb" data-class="rest" class="rest" fill="#000009" stroke="#000009" color="#000009" style="fill:#000009;stroke:#000009;color:#000009">
                        <use xlink:href="#E4E7-tgdcp6k" transform="translate(7430, 900) scale(0.72, 0.72)" fill="#000009" stroke="#000009" color="#000009" style="fill:#000009;stroke:#000009;color:#000009" />
                     </g>
                     <g data-id="a1pf6na1" data-class="note" class="note" fill="#00000a" stroke="#00000a" color="#00000a" style="fill:#00000a;stroke:#00000a;color:#00000a">
                        <g data-class="notehead" class="notehead" fill="#00000a" stroke="#00000a" color="#00000a" style="fill:#00000a;stroke:#00000a;color:#00000a">
                           <use xlink:href="#E0A4-tgdcp6k" transform="translate(7750, 810) scale(0.72, 0.72)" fill="#00000a" stroke="#00000a" color="#00000a" style="fill:#00000a;stroke:#00000a;color:#00000a" />
                        </g>
                        <g data-id="m1qdr4vn" data-class="stem" class="stem" fill="#00000a" stroke="#00000a" color="#00000a" style="fill:#00000a;stroke:#00000a;color:#00000a">
                           <path d="M7759 840 L7759 1440" stroke-width="18" fill="#00000a" stroke="#00000a" color="#00000a" style="fill:#00000a;stroke:#00000a;color:#00000a" />
                           <g data-id="n2voyoe" data-class="flag" class="flag" fill="#00000a" stroke="#00000a" color="#00000a" style="fill:#00000a;stroke:#00000a;color:#00000a">
                              <use xlink:href="#E243-tgdcp6k" transform="translate(7750, 1440) scale(0.72, 0.72)" fill="#00000a" stroke="#00000a" color="#00000a" style="fill:#00000a;stroke:#00000a;color:#00000a" />
                           </g>
                        </g>
                     </g>
                     <g data-id="b5xn3ps" data-class="rest" class="rest" fill="#00000b" stroke="#00000b" color="#00000b" style="fill:#00000b;stroke:#00000b;color:#00000b">
                        <use xlink:href="#E4E5-tgdcp6k" transform="translate(8052, 900) scale(0.72, 0.72)" fill="#00000b" stroke="#00000b" color="#00000b" style="fill:#00000b;stroke:#00000b;color:#00000b" />
                     </g>
                     <g data-id="ccomigx" data-class="rest" class="rest" fill="#00000c" stroke="#00000c" color="#00000c" style="fill:#00000c;stroke:#00000c;color:#00000c">
                        <use xlink:href="#E4E4-tgdcp6k" transform="translate(8742, 900) scale(0.72, 0.72)" fill="#00000c" stroke="#00000c" color="#00000c" style="fill:#00000c;stroke:#00000c;color:#00000c" />
                        <g data-class="ledgerLines" class="ledgerLines" fill="#00000c" stroke="#00000c" color="#00000c" style="fill:#00000c;stroke:#00000c;color:#00000c" />
                     </g>
                  </g>
               </g>
               <g data-id="upt3h8p" data-class="barLine" class="barLine">
                  <path d="M9792 540 L9792 1260" stroke-width="27" />
               </g>
            </g>
            <g data-id="d4lpyv1" data-class="measure" class="measure">
               <g data-id="m1y37cyf" data-class="staff" class="staff">
                  <path d="M9805 540 L11588 540" stroke-width="13" />
                  <path d="M9805 720 L11588 720" stroke-width="13" />
                  <path d="M9805 900 L11588 900" stroke-width="13" />
                  <path d="M9805 1080 L11588 1080" stroke-width="13" />
                  <path d="M9805 1260 L11588 1260" stroke-width="13" />
                  <g data-id="n1n21gzf" data-class="layer" class="layer">
                     <g data-id="oknuuj0" data-class="rest" class="rest" fill="#00000d" stroke="#00000d" color="#00000d" style="fill:#00000d;stroke:#00000d;color:#00000d">
                        <use xlink:href="#E4E3-tgdcp6k" transform="translate(9985, 720) scale(0.72, 0.72)" fill="#00000d" stroke="#00000d" color="#00000d" style="fill:#00000d;stroke:#00000d;color:#00000d" />
                        <g data-class="ledgerLines" class="ledgerLines" fill="#00000d" stroke="#00000d" color="#00000d" style="fill:#00000d;stroke:#00000d;color:#00000d" />
                     </g>
                  </g>
               </g>
               <g data-id="l120w3vi" data-class="barLine" class="barLine">
                  <path d="M11575 540 L11575 1260" stroke-width="27" />
               </g>
            </g>
            <g data-id="w1qy65ca" data-class="systemMilestoneEnd" class="systemMilestoneEnd gok3yln" />
         </g>
         <g data-id="x43cuz1" data-class="pageMilestoneEnd" class="pageMilestoneEnd e44g46s" />
         <g data-id="yzvq4t7" data-class="pageMilestoneEnd" class="pageMilestoneEnd de6xz4s" />
      </g>
   </svg>
</svg>