<svg viewBox="0 0 1050 230" version="1.1" xmlns="http://www.w3.org/2000/svg" xmlns:xlink="http://www.w3.org/1999/xlink" overflow="visible" id="q5yw143">
   <desc>Engraved by Verovio 5.6.0[undefined]</desc>
   <defs>
      <g id="E050-q5yw143">
         <path transform="scale(1,-1)" d="M441 -245c-23 -4 -48 -6 -76 -6c-59 0 -102 7 -130 20c-88 42 -150 93 -187 154c-26 44 -43 103 -48 176c0 6 -1 13 -1 19c0 54 15 111 45 170c29 57 65 106 110 148s96 85 153 127c-3 16 -8 46 -13 92c-4 43 -5 73 -5 89c0 117 16 172 69 257c34 54 64 82 89 82 c21 0 43 -30 69 -92s39 -115 41 -159v-15c0 -109 -21 -162 -67 -241c-13 -20 -63 -90 -98 -118c-13 -9 -25 -19 -37 -29l31 -181c8 1 18 2 28 2c58 0 102 -12 133 -35c59 -43 92 -104 98 -184c1 -7 1 -15 1 -22c0 -123 -87 -209 -181 -248c8 -57 17 -110 25 -162 c5 -31 6 -58 6 -80c0 -30 -5 -53 -14 -70c-35 -64 -88 -99 -158 -103c-5 0 -11 -1 -16 -1c-37 0 -72 10 -108 27c-50 24 -77 59 -80 105v11c0 29 7 55 20 76c18 28 45 42 79 44h6c49 0 93 -42 97 -87v-9c0 -51 -34 -86 -105 -106c17 -24 51 -36 102 -36c62 0 116 43 140 85 c9 16 13 41 13 74c0 20 -1 42 -5 67c-8 53 -18 106 -26 159zM461 939c-95 0 -135 -175 -135 -286c0 -24 2 -48 5 -71c50 39 92 82 127 128c40 53 60 100 60 140v8c-4 53 -22 81 -55 81h-2zM406 119l54 -326c73 25 110 78 110 161c0 7 0 15 -1 23c-7 95 -57 142 -151 142h-12 zM382 117c-72 -2 -128 -47 -128 -120v-7c2 -46 43 -99 75 -115c-3 -2 -7 -5 -10 -10c-70 33 -116 88 -123 172v11c0 68 44 126 88 159c23 17 49 29 78 36l-29 170c-21 -13 -52 -37 -92 -73c-50 -44 -86 -84 -109 -119c-45 -69 -67 -130 -67 -182v-13c5 -68 35 -127 93 -176 s125 -73 203 -73c25 0 50 3 75 9c-19 111 -36 221 -54 331z" />
      </g>
      <g id="E0A4-q5yw143">
         <path transform="scale(1,-1)" d="M0 -39c0 68 73 172 200 172c66 0 114 -37 114 -95c0 -84 -106 -171 -218 -171c-64 0 -96 30 -96 94z" />
      </g>
      <g id="E062-q5yw143">
         <path transform="scale(1,-1)" d="M582 -120c0 32 26 58 58 58s58 -26 58 -58s-26 -58 -58 -58s-58 26 -58 58zM582 120c0 32 26 58 58 58s58 -26 58 -58s-26 -58 -58 -58s-58 26 -58 58zM158 96c51 0 73 -14 88 -49l16 -39c0 -17 -2 -30 -7 -40c-3 -11 -10 -21 -19 -31c-17 -18 -49 -43 -84 -43 c-55 0 -77 13 -112 44c-24 21 -35 55 -35 100c0 46 14 81 32 112c30 52 71 79 137 93l36 6l26 2c154 0 235 -68 274 -182c11 -32 18 -68 18 -107c0 -103 -26 -182 -68 -250c-89 -145 -234 -230 -412 -288l-30 -5c-9 0 -14 3 -14 8c3 10 5 11 10 16c35 15 70 30 96 44l78 43 c96 57 162 136 197 258c9 33 17 60 22 100c3 22 5 35 6 39c-7 69 -16 115 -23 140s-4 22 -16 40c-8 12 -19 23 -31 34c-24 21 -62 44 -118 44c-48 0 -84 -8 -113 -28c-28 -19 -42 -44 -42 -73v-16c2 -5 3 -9 4 -11c24 22 52 39 84 39z" />
      </g>
      <g id="E241-q5yw143">
         <path transform="scale(1,-1)" d="M179 646c-4 8 -17 30 -18 33l-4 10c0 3 2 5 5 5s7 -2 13 -7c23 -33 46 -81 66 -132c22 -57 35 -125 35 -163c0 -104 -60 -183 -122 -241c-63 -59 -57 -53 -61 -56c-38 -34 -63 -95 -71 -95h-22v190c40 7 69 11 87 16c88 27 168 95 168 200c0 30 -12 89 -30 138 c-17 47 -31 73 -46 102z" />
      </g>
      <g id="E240-q5yw143">
         <path transform="scale(1,-1)" d="M179 -646c15 29 29 55 46 102c18 49 30 108 30 138c0 105 -80 173 -168 200c-18 5 -47 9 -87 16v190h22c8 0 33 -61 71 -95c4 -3 -2 3 61 -56c62 -58 122 -137 122 -241c0 -38 -13 -106 -35 -163c-20 -51 -43 -99 -66 -132c-6 -5 -10 -7 -13 -7s-5 2 -5 5l4 10 c1 3 14 25 18 33z" />
      </g>
   </defs>
   <style type="text/css">#q5yw143 g.page-margin {font-family:Times,serif;}#q5yw143 g.ending, #q5yw143 g.fing, #q5yw143 g.reh, #q5yw143 g.tempo {font-weight:bold;}#q5yw143 g.dir, #q5yw143 g.dynam, #q5yw143 g.mNum {font-style:italic;}#q5yw143 g.label {font-weight:normal;}#q5yw143 path {stroke:currentColor}</style>
   <svg class="definition-scale" color="black" viewBox="0 0 21000 4600">
      <g class="page-margin" transform="translate(500, 500)">
         <g data-id="az4rsq8" data-class="mdiv" class="mdiv pageMilestone" />
         <g data-id="b1eifxyi" data-class="score" class="score pageMilestone" />
         <g data-id="j1nu1v4t" data-class="system" class="system">
            <path d="M1523 540 L1523 3060" stroke-width="27" />
            <g data-id="ngy7yz0" data-class="grpSym" class="grpSym">
               <path d="M1438,3042 C1078,2502 1528,1980 1258,1800 C1591,1980 1141,2502 1438,3042" stroke-linecap="round" stroke-linejoin="round" stroke-width="18" />
               <path d="M1438,558 C1141,1098 1591,1620 1258,1800 C1528,1620 1078,1098 1438,558" stroke-linecap="round" stroke-linejoin="round" stroke-width="18" />
            </g>
            <g data-id="ozxvg3r" data-class="label" class="label">
               <text x="1105" y="1890" text-anchor="end" font-size="0px">
                  <tspan data-id="pohtcwb" data-class="text" class="text">
                     <tspan font-size="405px">Piano</tspan>
                  </tspan>
               </text>
            </g>
            <g data-id="d1ucamni" data-class="section" class="section systemMilestone" />
            <g data-id="b1xzafsy" data-class="measure" class="measure">
               <g data-id="k11k2ky0" data-class="staff" class="staff">
                  <path d="M1510 540 L6607 540" stroke-width="13" />
                  <path d="M1510 720 L6607 720" stroke-width="13" />
                  <path d="M1510 900 L6607 900" stroke-width="13" />
                  <path d="M1510 1080 L6607 1080" stroke-width="13" />
                  <path d="M1510 1260 L6607 1260" stroke-width="13" />
                  <g data-id="hfzbr31" data-class="clef" class="clef">
                     <use xlink:href="#E050-q5yw143" transform="translate(1627, 1080) scale(0.72, 0.72)" />
                  </g>
                  <g data-id="i17x1b2y" data-class="keySig" class="keySig" />
                  <g data-class="ledgerLines" class="ledgerLines below">
                     <g data-class="lineDash" class="lineDash" data-related="#n1nv7s7v">
                        <path d="M2376 1440 L2698 1440" stroke-width="22" />
                     </g>
                  </g>
                  <g data-id="m1o2v8cp" data-class="layer" class="layer">
                     <g data-id="n1nv7s7v" data-class="note" class="note">
                        <g data-class="notehead" class="notehead">
                           <use xlink:href="#E0A4-q5yw143" transform="translate(2424, 1440) scale(0.72, 0.72)" />
                        </g>
                        <g data-id="r16ujd1" data-class="stem" class="stem">
                           <path d="M2641 1412 L2641 810" stroke-width="18" />
                        </g>
                     </g>
                     <g data-id="p1ux09vx" data-class="note" class="note">
                        <g data-class="notehead" class="notehead">
                           <use xlink:href="#E0A4-q5yw143" transform="translate(3454, 1260) scale(0.72, 0.72)" />
                        </g>
                        <g data-id="s14j9k44" data-class="stem" class="stem">
                           <path d="M3671 1232 L3671 630" stroke-width="18" />
                        </g>
                     </g>
                     <g data-id="q1ugf5wt" data-class="note" class="note">
                        <g data-class="notehead" class="notehead">
                           <use xlink:href="#E0A4-q5yw143" transform="translate(4483, 1080) scale(0.72, 0.72)" />
                        </g>
                        <g data-id="t1rirrh6" data-class="stem" class="stem">
                           <path d="M4700 1052 L4700 450" stroke-width="18" />
                        </g>
                     </g>
                     <g data-id="r1vmeaa8" data-class="note" class="note">
                        <g data-class="notehead" class="notehead">
                           <use xlink:href="#E0A4-q5yw143" transform="translate(5512, 810) scale(0.72, 0.72)" />
                        </g>
                        <g data-id="u15zvadl" data-class="stem" class="stem">
                           <path d="M5521 838 L5521 1440" stroke-width="18" />
                        </g>
                     </g>
                  </g>
               </g>
               <g data-id="l1j9lsib" data-class="staff" class="staff">
                  <path d="M1510 2340 L6607 2340" stroke-width="13" />
                  <path d="M1510 2520 L6607 2520" stroke-width="13" />
                  <path d="M1510 2700 L6607 2700" stroke-width="13" />
                  <path d="M1510 2880 L6607 2880" stroke-width="13" />
                  <path d="M1510 3060 L6607 3060" stroke-width="13" />
                  <g data-id="jzfqca5" data-class="clef" class="clef">
                     <use xlink:href="#E062-q5yw143" transform="translate(1627, 2520) scale(0.72, 0.72)" />
                  </g>
                  <g data-id="k1roasvp" data-class="keySig" class="keySig" />
                  <g data-id="s13fnl0h" data-class="layer" class="layer">
                     <g data-id="t535yid" data-class="note" class="note">
                        <g data-class="notehead" class="notehead">
                           <use xlink:href="#E0A4-q5yw143" transform="translate(2424, 2340) scale(0.72, 0.72)" />
                        </g>
                        <g data-id="v9aux22" data-class="stem" class="stem">
                           <path d="M2433 2368 L2433 2970" stroke-width="18" />
                           <g data-id="wqlz8hw" data-class="flag" class="flag">
                              <use xlink:href="#E241-q5yw143" transform="translate(2424, 2970) scale(0.72, 0.72)" />
                           </g>
                        </g>
                     </g>
                     <g data-id="u1mmo775" data-class="note" class="note">
                        <g data-class="notehead" class="notehead">
                           <use xlink:href="#E0A4-q5yw143" transform="translate(2939, 2520) scale(0.72, 0.72)" />
                        </g>
                        <g data-id="x1ec85j4" data-class="stem" class="stem">
                           <path d="M2948 2548 L2948 3150" stroke-width="18" />
                           <g data-id="ypb1bfl" data-class="flag" class="flag">
                              <use xlink:href="#E241-q5yw143" transform="translate(2939, 3150) scale(0.72, 0.72)" />
                           </g>
                        </g>
                     </g>
                     <g data-id="v7isbla" data-class="note" class="note">
                        <g data-class="notehead" class="notehead">
                           <use xlink:href="#E0A4-q5yw143" transform="translate(3454, 2520) scale(0.72, 0.72)" />
                        </g>
                        <g data-id="z14uyofl" data-class="stem" class="stem">
                           <path d="M3463 2548 L3463 3150" stroke-width="18" />
                           <g data-id="a17j7yhe" data-class="flag" class="flag">
                              <use xlink:href="#E241-q5yw143" transform="translate(3454, 3150) scale(0.72, 0.72)" />
                           </g>
                        </g>
                     </g>
                     <g data-id="w14fzxox" data-class="note" class="note">
                        <g data-class="notehead" class="notehead">
                           <use xlink:href="#E0A4-q5yw143" transform="translate(3968, 2520) scale(0.72, 0.72)" />
                        </g>
                        <g data-id="b1g6oioo" data-class="stem" class="stem">
                           <path d="M3977 2548 L3977 3150" stroke-width="18" />
                           <g data-id="cxrcs73" data-class="flag" class="flag">
                              <use xlink:href="#E241-q5yw143" transform="translate(3968, 3150) scale(0.72, 0.72)" />
                           </g>
                        </g>
                     </g>
                     <g data-id="xftnmr1" data-class="note" class="note">
                        <g data-class="notehead" class="notehead">
                           <use xlink:href="#E0A4-q5yw143" transform="translate(4483, 2340) scale(0.72, 0.72)" />
                        </g>
                        <g data-id="d1c4ju74" data-class="stem" class="stem">
                           <path d="M4492 2368 L4492 2970" stroke-width="18" />
                           <g data-id="e3a6mzs" data-class="flag" class="flag">
                              <use xlink:href="#E241-q5yw143" transform="translate(4483, 2970) scale(0.72, 0.72)" />
                           </g>
                        </g>
                     </g>
                     <g data-id="y12fiptb" data-class="note" class="note">
                        <g data-class="notehead" class="notehead">
                           <use xlink:href="#E0A4-q5yw143" transform="translate(4998, 2340) scale(0.72, 0.72)" />
                        </g>
                        <g data-id="f1i5eq9p" data-class="stem" class="stem">
                           <path d="M5007 2368 L5007 2970" stroke-width="18" />
                           <g data-id="gbqvce3" data-class="flag" class="flag">
                              <use xlink:href="#E241-q5yw143" transform="translate(4998, 2970) scale(0.72, 0.72)" />
                           </g>
                        </g>
                     </g>
                     <g data-id="z1vdjsbz" data-class="note" class="note">
                        <g data-class="notehead" class="notehead">
                           <use xlink:href="#E0A4-q5yw143" transform="translate(5512, 2790) scale(0.72, 0.72)" />
                        </g>
                        <g data-id="hl2x2bv" data-class="stem" class="stem">
                           <path d="M5729 2762 L5729 2160" stroke-width="18" />
                           <g data-id="i1h14gj5" data-class="flag" class="flag">
                              <use xlink:href="#E240-q5yw143" transform="translate(5720, 2160) scale(0.72, 0.72)" />
                           </g>
                        </g>
                     </g>
                     <g data-id="bboiiv4" data-class="note" class="note">
                        <g data-class="notehead" class="notehead">
                           <use xlink:href="#E0A4-q5yw143" transform="translate(6080, 2520) scale(0.72, 0.72)" />
                        </g>
                        <g data-id="j1qlaamu" data-class="stem" class="stem">
                           <path d="M6089 2548 L6089 3150" stroke-width="18" />
                           <g data-id="k2391f0" data-class="flag" class="flag">
                              <use xlink:href="#E241-q5yw143" transform="translate(6080, 3150) scale(0.72, 0.72)" />
                           </g>
                        </g>
                     </g>
                  </g>
               </g>
               <g data-id="o14msz05" data-class="slur" class="slur">
                  <path d="M2717,1057 C3300,238 5321,105 5623,607 C5291,165 3332,297 2717,1057" stroke-linecap="round" stroke-linejoin="round" stroke-width="9" />
               </g>
               <g data-id="aqnaj7y" data-class="tie" class="tie" />
               <g data-id="j1n8wxsb" data-class="barLine" class="barLine">
                  <path d="M6594 540 L6594 1260" stroke-width="27" />
                  <path d="M6594 2340 L6594 3060" stroke-width="27" />
                  <path d="M6594 1260 L6594 2340" stroke-width="27" />
               </g>
            </g>
            <g data-id="c1tg9prm" data-class="measure" class="measure">
               <g data-id="l5hkcy8" data-class="staff" class="staff">
                  <path d="M6607 540 L11065 540" stroke-width="13" />
                  <path d="M6607 720 L11065 720" stroke-width="13" />
                  <path d="M6607 900 L11065 900" stroke-width="13" />
                  <path d="M6607 1080 L11065 1080" stroke-width="13" />
                  <path d="M6607 1260 L11065 1260" stroke-width="13" />
                  <g data-class="ledgerLines" class="ledgerLines below">
                     <g data-class="lineDash" class="lineDash" data-related="#onr1vkl">
                        <path d="M6765 1440 L7087 1440" stroke-width="22" />
                     </g>
                  </g>
                  <g data-id="nmct6qq" data-class="layer" class="layer">
                     <g data-id="onr1vkl" data-class="note" class="note">
                        <g data-class="notehead" class="notehead">
                           <use xlink:href="#E0A4-q5yw143" transform="translate(6813, 1440) scale(0.72, 0.72)" />
                        </g>
                        <g data-id="l1175k1z" data-class="stem" class="stem">
                           <path d="M7030 1412 L7030 810" stroke-width="18" />
                        </g>
                     </g>
                     <g data-id="pe8yy7r" data-class="note" class="note">
                        <g data-class="notehead" class="notehead">
                           <use xlink:href="#E0A4-q5yw143" transform="translate(7895, 1260) scale(0.72, 0.72)" />
                        </g>
                        <g data-id="m1ixv2cz" data-class="stem" class="stem">
                           <path d="M8112 1232 L8112 630" stroke-width="18" />
                        </g>
                     </g>
                     <g data-id="q1it2t4i" data-class="note" class="note">
                        <g data-class="notehead" class="notehead">
                           <use xlink:href="#E0A4-q5yw143" transform="translate(8925, 1080) scale(0.72, 0.72)" />
                        </g>
                        <g data-id="n632mx9" data-class="stem" class="stem">
                           <path d="M9142 1052 L9142 450" stroke-width="18" />
                        </g>
                     </g>
                     <g data-id="rvq4bww" data-class="note" class="note">
                        <g data-class="notehead" class="notehead">
                           <use xlink:href="#E0A4-q5yw143" transform="translate(9954, 810) scale(0.72, 0.72)" />
                        </g>
                        <g data-id="o16mrdq9" data-class="stem" class="stem">
                           <path d="M9963 838 L9963 1440" stroke-width="18" />
                        </g>
                     </g>
                  </g>
               </g>
               <g data-id="mqwm6ww" data-class="staff" class="staff">
                  <path d="M6607 2340 L11065 2340" stroke-width="13" />
                  <path d="M6607 2520 L11065 2520" stroke-width="13" />
                  <path d="M6607 2700 L11065 2700" stroke-width="13" />
                  <path d="M6607 2880 L11065 2880" stroke-width="13" />
                  <path d="M6607 3060 L11065 3060" stroke-width="13" />
                  <g data-id="sqzva4j" data-class="layer" class="layer">
                     <g data-id="t1gpdme1" data-class="note" class="note">
                        <g data-class="notehead" class="notehead">
                           <use xlink:href="#E0A4-q5yw143" transform="translate(6813, 2340) scale(0.72, 0.72)" />
                        </g>
                        <g data-id="p17c0knd" data-class="stem" class="stem">
                           <path d="M6822 2368 L6822 2970" stroke-width="18" />
                           <g data-id="q1qmi23q" data-class="flag" class="flag">
                              <use xlink:href="#E241-q5yw143" transform="translate(6813, 2970) scale(0.72, 0.72)" />
                           </g>
                        </g>
                     </g>
                     <g data-id="u1783k6c" data-class="note" class="note">
                        <g data-class="notehead" class="notehead">
                           <use xlink:href="#E0A4-q5yw143" transform="translate(7328, 2790) scale(0.72, 0.72)" />
                        </g>
                        <g data-id="r1gmvwih" data-class="stem" class="stem">
                           <path d="M7545 2762 L7545 2160" stroke-width="18" />
                           <g data-id="s12r2adg" data-class="flag" class="flag">
                              <use xlink:href="#E240-q5yw143" transform="translate(7536, 2160) scale(0.72, 0.72)" />
                           </g>
                        </g>
                     </g>
                     <g data-id="v1sdxusx" data-class="note" class="note">
                        <g data-class="notehead" class="notehead">
                           <use xlink:href="#E0A4-q5yw143" transform="translate(7895, 2340) scale(0.72, 0.72)" />
                        </g>
                        <g data-id="trlgt3" data-class="stem" class="stem">
                           <path d="M7904 2368 L7904 2970" stroke-width="18" />
                           <g data-id="uyo13oz" data-class="flag" class="flag">
                              <use xlink:href="#E241-q5yw143" transform="translate(7895, 2970) scale(0.72, 0.72)" />
                           </g>
                        </g>
                     </g>
                     <g data-id="w19w628f" data-class="note" class="note">
                        <g data-class="notehead" class="notehead">
                           <use xlink:href="#E0A4-q5yw143" transform="translate(8410, 2520) scale(0.72, 0.72)" />
                        </g>
                        <g data-id="vlm8p3n" data-class="stem" class="stem">
                           <path d="M8419 2548 L8419 3150" stroke-width="18" />
                           <g data-id="w1npivws" data-class="flag" class="flag">
                              <use xlink:href="#E241-q5yw143" transform="translate(8410, 3150) scale(0.72, 0.72)" />
                           </g>
                        </g>
                     </g>
                     <g data-id="x1g440cy" data-class="note" class="note">
                        <g data-class="notehead" class="notehead">
                           <use xlink:href="#E0A4-q5yw143" transform="translate(8925, 2790) scale(0.72, 0.72)" />
                        </g>
                        <g data-id="x1w4klpf" data-class="stem" class="stem">
                           <path d="M9142 2762 L9142 2160" stroke-width="18" />
                           <g data-id="y1m90gp8" data-class="flag" class="flag">
                              <use xlink:href="#E240-q5yw143" transform="translate(9133, 2160) scale(0.72, 0.72)" />
                           </g>
                        </g>
                     </g>
                     <g data-id="y11gam99" data-class="note" class="note">
                        <g data-class="notehead" class="notehead">
                           <use xlink:href="#E0A4-q5yw143" transform="translate(9439, 2790) scale(0.72, 0.72)" />
                        </g>
                        <g data-id="z1rqnffh" data-class="stem" class="stem">
                           <path d="M9656 2762 L9656 2160" stroke-width="18" />
                           <g data-id="a1bk6ujz" data-class="flag" class="flag">
                              <use xlink:href="#E240-q5yw143" transform="translate(9647, 2160) scale(0.72, 0.72)" />
                           </g>
                        </g>
                     </g>
                     <g data-id="z1qjopr6" data-class="note" class="note">
                        <g data-class="notehead" class="notehead">
                           <use xlink:href="#E0A4-q5yw143" transform="translate(9954, 2790) scale(0.72, 0.72)" />
                        </g>
                        <g data-id="be0qbik" data-class="stem" class="stem">
                           <path d="M10171 2762 L10171 2160" stroke-width="18" />
                           <g data-id="cjijkqi" data-class="flag" class="flag">
                              <use xlink:href="#E240-q5yw143" transform="translate(10162, 2160) scale(0.72, 0.72)" />
                           </g>
                        </g>
                     </g>
                     <g data-id="a16jivcy" data-class="note" class="note">
                        <g data-class="notehead" class="notehead">
                           <use xlink:href="#E0A4-q5yw143" transform="translate(10469, 2790) scale(0.72, 0.72)" />
                        </g>
                        <g data-id="dejk3oj" data-class="stem" class="stem">
                           <path d="M10686 2762 L10686 2160" stroke-width="18" />
                           <g data-id="e1z0ee2z" data-class="flag" class="flag">
                              <use xlink:href="#E240-q5yw143" transform="translate(10677, 2160) scale(0.72, 0.72)" />
                           </g>
                        </g>
                     </g>
                  </g>
               </g>
               <g data-id="kjx9sgp" data-class="barLine" class="barLine">
                  <path d="M11052 540 L11052 1260" stroke-width="27" />
                  <path d="M11052 2340 L11052 3060" stroke-width="27" />
                  <path d="M11052 1260 L11052 2340" stroke-width="27" />
               </g>
            </g>
            <g data-id="b17f6fhj" data-class="measure" class="measure">
               <g data-id="kuixi5r" data-class="staff" class="staff">
                  <path d="M11065 540 L15560 540" stroke-width="13" />
                  <path d="M11065 720 L15560 720" stroke-width="13" />
                  <path d="M11065 900 L15560 900" stroke-width="13" />
                  <path d="M11065 1080 L15560 1080" stroke-width="13" />
                  <path d="M11065 1260 L15560 1260" stroke-width="13" />
                  <g data-class="ledgerLines" class="ledgerLines below">
                     <g data-class="lineDash" class="lineDash" data-related="#n1tcolwi">
                        <path d="M11223 1440 L11545 1440" stroke-width="22" />
                     </g>
                  </g>
                  <g data-id="m1odn2q6" data-class="layer" class="layer">
                     <g data-id="n1tcolwi" data-class="note" class="note">
                        <g data-class="notehead" class="notehead">
                           <use xlink:href="#E0A4-q5yw143" transform="translate(11271, 1440) scale(0.72, 0.72)" />
                        </g>
                        <g data-id="f18b7kjx" data-class="stem" class="stem">
                           <path d="M11488 1412 L11488 810" stroke-width="18" />
                        </g>
                     </g>
                     <g data-id="o1qkrhvv" data-class="note" class="note">
                        <g data-class="notehead" class="notehead">
                           <use xlink:href="#E0A4-q5yw143" transform="translate(12353, 1260) scale(0.72, 0.72)" />
                        </g>
                        <g data-id="gejot2s" data-class="stem" class="stem">
                           <path d="M12570 1232 L12570 630" stroke-width="18" />
                        </g>
                     </g>
                     <g data-id="p16yd9f4" data-class="note" class="note">
                        <g data-class="notehead" class="notehead">
                           <use xlink:href="#E0A4-q5yw143" transform="translate(13383, 1080) scale(0.72, 0.72)" />
                        </g>
                        <g data-id="h1s8nssd" data-class="stem" class="stem">
                           <path d="M13600 1052 L13600 450" stroke-width="18" />
                        </g>
                     </g>
                     <g data-id="q1o0yc5p" data-class="note" class="note">
                        <g data-class="notehead" class="notehead">
                           <use xlink:href="#E0A4-q5yw143" transform="translate(14465, 810) scale(0.72, 0.72)" />
                        </g>
                        <g data-id="i1y6952m" data-class="stem" class="stem">
                           <path d="M14474 838 L14474 1440" stroke-width="18" />
                        </g>
                     </g>
                  </g>
               </g>
               <g data-id="lhqcw65" data-class="staff" class="staff">
                  <path d="M11065 2340 L15560 2340" stroke-width="13" />
                  <path d="M11065 2520 L15560 2520" stroke-width="13" />
                  <path d="M11065 2700 L15560 2700" stroke-width="13" />
                  <path d="M11065 2880 L15560 2880" stroke-width="13" />
                  <path d="M11065 3060 L15560 3060" stroke-width="13" />
                  <g data-id="r1rfw3em" data-class="layer" class="layer">
                     <g data-id="s14sxwaj" data-class="note" class="note">
                        <g data-class="notehead" class="notehead">
                           <use xlink:href="#E0A4-q5yw143" transform="translate(11271, 2790) scale(0.72, 0.72)" />
                        </g>
                        <g data-id="j1bjet2z" data-class="stem" class="stem">
                           <path d="M11488 2762 L11488 2160" stroke-width="18" />
                           <g data-id="k3y6ruc" data-class="flag" class="flag">
                              <use xlink:href="#E240-q5yw143" transform="translate(11479, 2160) scale(0.72, 0.72)" />
                           </g>
                        </g>
                     </g>
                     <g data-id="tejj1lx" data-class="note" class="note">
                        <g data-class="notehead" class="notehead">
                           <use xlink:href="#E0A4-q5yw143" transform="translate(11839, 2520) scale(0.72, 0.72)" />
                        </g>
                        <g data-id="l1wm6wq4" data-class="stem" class="stem">
                           <path d="M11848 2548 L11848 3150" stroke-width="18" />
                           <g data-id="m1k66t8t" data-class="flag" class="flag">
                              <use xlink:href="#E241-q5yw143" transform="translate(11839, 3150) scale(0.72, 0.72)" />
                           </g>
                        </g>
                     </g>
                     <g data-id="ulc79oz" data-class="note" class="note">
                        <g data-class="notehead" class="notehead">
                           <use xlink:href="#E0A4-q5yw143" transform="translate(12353, 2520) scale(0.72, 0.72)" />
                        </g>
                        <g data-id="nk2agj6" data-class="stem" class="stem">
                           <path d="M12362 2548 L12362 3150" stroke-width="18" />
                           <g data-id="o1s8c88k" data-class="flag" class="flag">
                              <use xlink:href="#E241-q5yw143" transform="translate(12353, 3150) scale(0.72, 0.72)" />
                           </g>
                        </g>
                     </g>
                     <g data-id="v7jsxvz" data-class="note" class="note">
                        <g data-class="notehead" class="notehead">
                           <use xlink:href="#E0A4-q5yw143" transform="translate(12868, 2340) scale(0.72, 0.72)" />
                        </g>
                        <g data-id="p190ecy3" data-class="stem" class="stem">
                           <path d="M12877 2368 L12877 2970" stroke-width="18" />
                           <g data-id="q1f2tgsu" data-class="flag" class="flag">
                              <use xlink:href="#E241-q5yw143" transform="translate(12868, 2970) scale(0.72, 0.72)" />
                           </g>
                        </g>
                     </g>
                     <g data-id="wisuz6i" data-class="note" class="note">
                        <g data-class="notehead" class="notehead">
                           <use xlink:href="#E0A4-q5yw143" transform="translate(13383, 2790) scale(0.72, 0.72)" />
                        </g>
                        <g data-id="r1sy1410" data-class="stem" class="stem">
                           <path d="M13600 2762 L13600 2160" stroke-width="18" />
                           <g data-id="sywq9gt" data-class="flag" class="flag">
                              <use xlink:href="#E240-q5yw143" transform="translate(13591, 2160) scale(0.72, 0.72)" />
                           </g>
                        </g>
                     </g>
                     <g data-id="x19tbdp4" data-class="note" class="note">
                        <g data-class="notehead" class="notehead">
                           <use xlink:href="#E0A4-q5yw143" transform="translate(13950, 2340) scale(0.72, 0.72)" />
                        </g>
                        <g data-id="t14tneku" data-class="stem" class="stem">
                           <path d="M13959 2368 L13959 2970" stroke-width="18" />
                           <g data-id="uk2w0va" data-class="flag" class="flag">
                              <use xlink:href="#E241-q5yw143" transform="translate(13950, 2970) scale(0.72, 0.72)" />
                           </g>
                        </g>
                     </g>
                     <g data-id="y42iz13" data-class="note" class="note">
                        <g data-class="notehead" class="notehead">
                           <use xlink:href="#E0A4-q5yw143" transform="translate(14465, 2790) scale(0.72, 0.72)" />
                        </g>
                        <g data-id="vfzwt07" data-class="stem" class="stem">
                           <path d="M14682 2762 L14682 2160" stroke-width="18" />
                           <g data-id="wknreo2" data-class="flag" class="flag">
                              <use xlink:href="#E240-q5yw143" transform="translate(14673, 2160) scale(0.72, 0.72)" />
                           </g>
                        </g>
                     </g>
                     <g data-id="z2h2ixw" data-class="note" class="note">
                        <g data-class="notehead" class="notehead">
                           <use xlink:href="#E0A4-q5yw143" transform="translate(15032, 2520) scale(0.72, 0.72)" />
                        </g>
                        <g data-id="xw5lurh" data-class="stem" class="stem">
                           <path d="M15041 2548 L15041 3150" stroke-width="18" />
                           <g data-id="y1m45u36" data-class="flag" class="flag">
                              <use xlink:href="#E241-q5yw143" transform="translate(15032, 3150) scale(0.72, 0.72)" />
                           </g>
                        </g>
                     </g>
                  </g>
               </g>
               <g data-id="j1ixsln8" data-class="barLine" class="barLine">
                  <path d="M15547 540 L15547 1260" stroke-width="27" />
                  <path d="M15547 2340 L15547 3060" stroke-width="27" />
                  <path d="M15547 1260 L15547 2340" stroke-width="27" />
               </g>
            </g>
            <g data-id="a15ugr3c" data-class="measure" class="measure">
               <g data-id="j177ao1y" data-class="staff" class="staff">
                  <path d="M15560 540 L20002 540" stroke-width="13" />
                  <path d="M15560 720 L20002 720" stroke-width="13" />
                  <path d="M15560 900 L20002 900" stroke-width="13" />
                  <path d="M15560 1080 L20002 1080" stroke-width="13" />
                  <path d="M15560 1260 L20002 1260" stroke-width="13" />
                  <g data-class="ledgerLines" class="ledgerLines below">
                     <g data-class="lineDash" class="lineDash" data-related="#m12ksn06">
                        <path d="M15718 1440 L16040 1440" stroke-width="22" />
                     </g>
                  </g>
                  <g data-id="lhkd30d" data-class="layer" class="layer">
                     <g data-id="m12ksn06" data-class="note" class="note">
                        <g data-class="notehead" class="notehead">
                           <use xlink:href="#E0A4-q5yw143" transform="translate(15766, 1440) scale(0.72, 0.72)" />
                        </g>
                        <g data-id="zou9v27" data-class="stem" class="stem">
                           <path d="M15983 1412 L15983 810" stroke-width="18" />
                        </g>
                     </g>
                     <g data-id="n2vdqq0" data-class="note" class="note">
                        <g data-class="notehead" class="notehead">
                           <use xlink:href="#E0A4-q5yw143" transform="translate(16848, 1260) scale(0.72, 0.72)" />
                        </g>
                        <g data-id="a1wpiukf" data-class="stem" class="stem">
                           <path d="M17065 1232 L17065 630" stroke-width="18" />
                        </g>
                     </g>
                     <g data-id="o1cohl2k" data-class="note" class="note">
                        <g data-class="notehead" class="notehead">
                           <use xlink:href="#E0A4-q5yw143" transform="translate(17878, 1080) scale(0.72, 0.72)" />
                        </g>
                        <g data-id="b12l4gg7" data-class="stem" class="stem">
                           <path d="M18095 1052 L18095 450" stroke-width="18" />
                        </g>
                     </g>
                     <g data-id="p1wbbdnh" data-class="note" class="note">
                        <g data-class="notehead" class="notehead">
                           <use xlink:href="#E0A4-q5yw143" transform="translate(18960, 810) scale(0.72, 0.72)" />
                        </g>
                        <g data-id="cqm7ffo" data-class="stem" class="stem">
                           <path d="M18969 838 L18969 1440" stroke-width="18" />
                        </g>
                     </g>
                  </g>
               </g>
               <g data-id="k1rgutvy" data-class="staff" class="staff">
                  <path d="M15560 2340 L20002 2340" stroke-width="13" />
                  <path d="M15560 2520 L20002 2520" stroke-width="13" />
                  <path d="M15560 2700 L20002 2700" stroke-width="13" />
                  <path d="M15560 2880 L20002 2880" stroke-width="13" />
                  <path d="M15560 3060 L20002 3060" stroke-width="13" />
                  <g data-id="q1x028fs" data-class="layer" class="layer">
                     <g data-id="rhcrfga" data-class="note" class="note">
                        <g data-class="notehead" class="notehead">
                           <use xlink:href="#E0A4-q5yw143" transform="translate(15766, 2790) scale(0.72, 0.72)" />
                        </g>
                        <g data-id="d1vwpaj" data-class="stem" class="stem">
                           <path d="M15983 2762 L15983 2160" stroke-width="18" />
                           <g data-id="eqvvsit" data-class="flag" class="flag">
                              <use xlink:href="#E240-q5yw143" transform="translate(15974, 2160) scale(0.72, 0.72)" />
                           </g>
                        </g>
                     </g>
                     <g data-id="s1ff1ysp" data-class="note" class="note">
                        <g data-class="notehead" class="notehead">
                           <use xlink:href="#E0A4-q5yw143" transform="translate(16334, 2520) scale(0.72, 0.72)" />
                        </g>
                        <g data-id="fln9j9n" data-class="stem" class="stem">
                           <path d="M16343 2548 L16343 3150" stroke-width="18" />
                           <g data-id="g1yheby1" data-class="flag" class="flag">
                              <use xlink:href="#E241-q5yw143" transform="translate(16334, 3150) scale(0.72, 0.72)" />
                           </g>
                        </g>
                     </g>
                     <g data-id="tlpnn52" data-class="note" class="note">
                        <g data-class="notehead" class="notehead">
                           <use xlink:href="#E0A4-q5yw143" transform="translate(16848, 2520) scale(0.72, 0.72)" />
                        </g>
                        <g data-id="hp6p88q" data-class="stem" class="stem">
                           <path d="M16857 2548 L16857 3150" stroke-width="18" />
                           <g data-id="i1aqjf8q" data-class="flag" class="flag">
                              <use xlink:href="#E241-q5yw143" transform="translate(16848, 3150) scale(0.72, 0.72)" />
                           </g>
                        </g>
                     </g>
                     <g data-id="u5rtzse" data-class="note" class="note">
                        <g data-class="notehead" class="notehead">
                           <use xlink:href="#E0A4-q5yw143" transform="translate(17363, 2520) scale(0.72, 0.72)" />
                        </g>
                        <g data-id="j2w25db" data-class="stem" class="stem">
                           <path d="M17372 2548 L17372 3150" stroke-width="18" />
                           <g data-id="kb7my22" data-class="flag" class="flag">
                              <use xlink:href="#E241-q5yw143" transform="translate(17363, 3150) scale(0.72, 0.72)" />
                           </g>
                        </g>
                     </g>
                     <g data-id="vvoroz0" data-class="note" class="note">
                        <g data-class="notehead" class="notehead">
                           <use xlink:href="#E0A4-q5yw143" transform="translate(17878, 2790) scale(0.72, 0.72)" />
                        </g>
                        <g data-id="l30w6fw" data-class="stem" class="stem">
                           <path d="M18095 2762 L18095 2160" stroke-width="18" />
                           <g data-id="mmwbl3f" data-class="flag" class="flag">
                              <use xlink:href="#E240-q5yw143" transform="translate(18086, 2160) scale(0.72, 0.72)" />
                           </g>
                        </g>
                     </g>
                     <g data-id="w1dmqrfz" data-class="note" class="note">
                        <g data-class="notehead" class="notehead">
                           <use xlink:href="#E0A4-q5yw143" transform="translate(18445, 2340) scale(0.72, 0.72)" />
                        </g>
                        <g data-id="ne3zwxg" data-class="stem" class="stem">
                           <path d="M18454 2368 L18454 2970" stroke-width="18" />
                           <g data-id="o1p4dmxl" data-class="flag" class="flag">
                              <use xlink:href="#E241-q5yw143" transform="translate(18445, 2970) scale(0.72, 0.72)" />
                           </g>
                        </g>
                     </g>
                     <g data-id="x15p9dok" data-class="note" class="note">
                        <g data-class="notehead" class="notehead">
                           <use xlink:href="#E0A4-q5yw143" transform="translate(18960, 2520) scale(0.72, 0.72)" />
                        </g>
                        <g data-id="p1uzfumw" data-class="stem" class="stem">
                           <path d="M18969 2548 L18969 3150" stroke-width="18" />
                           <g data-id="que0lz6" data-class="flag" class="flag">
                              <use xlink:href="#E241-q5yw143" transform="translate(18960, 3150) scale(0.72, 0.72)" />
                           </g>
                        </g>
                     </g>
                     <g data-id="yk7po62" data-class="note" class="note">
                        <g data-class="notehead" class="notehead">
                           <use xlink:href="#E0A4-q5yw143" transform="translate(19474, 2520) scale(0.72, 0.72)" />
                        </g>
                        <g data-id="rexsmuj" data-class="stem" class="stem">
                           <path d="M19483 2548 L19483 3150" stroke-width="18" />
                           <g data-id="srd76ru" data-class="flag" class="flag">
                              <use xlink:href="#E241-q5yw143" transform="translate(19474, 3150) scale(0.72, 0.72)" />
                           </g>
                        </g>
                     </g>
                  </g>
               </g>
               <g data-id="ihi04so" data-class="barLine" class="barLine">
                  <path d="M19989 540 L19989 1260" stroke-width="27" />
                  <path d="M19989 2340 L19989 3060" stroke-width="27" />
                  <path d="M19989 1260 L19989 2340" stroke-width="27" />
               </g>
            </g>
            <g data-id="g1jxatbf" data-class="systemMilestoneEnd" class="systemMilestoneEnd d1ucamni" />
         </g>
         <g data-id="h1dvhux" data-class="pageMilestoneEnd" class="pageMilestoneEnd b1eifxyi" />
         <g data-id="i1nlsqpl" data-class="pageMilestoneEnd" class="pageMilestoneEnd az4rsq8" />
      </g>
   </svg>
</svg>
