<?xml version="1.0" ?>
<score-partwise version="3.1">
   <part-list>
      <score-part id="P1">
         <part-name>Violin</part-name>
      </score-part>
      <score-part id="P2">
         <part-name>Cello</part-name>
      </score-part>
   </part-list>
   <part id="P1">
      <measure number="1">
         <attributes>
            <divisions>4</divisions>
            <key>
               <fifths>0</fifths>
            </key>
            <time>
               <beats>4</beats>
               <beat-type>4</beat-type>
            </time>
            <clef>
               <sign>G</sign>
               <line>2</line>
            </clef>
         </attributes>
         <note>
            <pitch>
               <step>D</step>
               <octave>5</octave>
            </pitch>
            <duration>1</duration>
            <voice>1</voice>
            <type>16th</type>
            <beam number="1">begin</beam>
         </note>
         <note>
            <pitch>
               <step>E</step>
               <octave>5</octave>
            </pitch>
            <duration>1</duration>
            <voice>1</voice>
            <type>16th</type>
            <beam number="1">continue</beam>
         </note>
         <note>
            <pitch>
               <step>F</step>
               <octave>5</octave>
            </pitch>
            <duration>1</duration>
            <voice>1</voice>
            <type>16th</type>
            <beam number="1">continue</beam>
         </note>
         <note>
            <pitch>
               <step>G</step>
               <octave>5</octave>
            </pitch>
            <duration>1</duration>
            <voice>1</voice>
            <type>16th</type>
            <beam number="1">end</beam>
         </note>
         <note>
            <pitch>
               <step>A</step>
               <octave>5</octave>
            </pitch>
            <duration>1</duration>
            <voice>1</voice>
            <type>16th</type>
            <beam number="1">begin</beam>
         </note>
         <note>
            <pitch>
               <step>B</step>
               <octave>5</octave>
            </pitch>
            <duration>1</duration>
            <voice>1</voice>
            <type>16th</type>
            <beam number="1">continue</beam>
         </note>
         <note>
            <pitch>
               <step>C</step>
               <octave>5</octave>
            </pitch>
            <duration>1</duration>
            <voice>1</voice>
            <type>16th</type>
            <beam number="1">continue</beam>
         </note>
         <note>
            <pitch>
               <step>D</step>
               <octave>5</octave>
            </pitch>
            <duration>1</duration>
            <voice>1</voice>
            <type>16th</type>
            <beam number="1">end</beam>
         </note>
         <note>
            <pitch>
               <step>E</step>
               <octave>5</octave>
            </pitch>
            <duration>1</duration>
            <voice>1</voice>
            <type>16th</type>
            <beam number="1">begin</beam>
         </note>
         <note>
            <pitch>
               <step>F</step>
               <octave>5</octave>
            </pitch>
            <duration>1</duration>
            <voice>1</voice>
            <type>16th</type>
            <beam number="1">continue</beam>
         </note>
         <note>
            <pitch>
               <step>G</step>
               <octave>5</octave>
            </pitch>
            <duration>1</duration>
            <voice>1</voice>
            <type>16th</type>
            <beam number="1">continue</beam>
         </note>
         <note>
            <pitch>
               <step>A</step>
               <octave>5</octave>
            </pitch>
            <duration>1</duration>
            <voice>1</voice>
            <type>16th</type>
            <beam number="1">end</beam>
         </note>
         <note>
            <pitch>
               <step>B</step>
               <octave>5</octave>
            </pitch>
            <duration>1</duration>
            <voice>1</voice>
            <type>16th</type>
            <beam number="1">begin</beam>
         </note>
         <note>
            <pitch>
               <step>C</step>
               <octave>5</octave>
            </pitch>
            <duration>1</duration>
            <voice>1</voice>
            <type>16th</type>
            <beam number="1">continue</beam>
         </note>
         <note>
            <pitch>
               <step>D</step>
               <octave>5</octave>
            </pitch>
            <duration>1</duration>
            <voice>1</voice>
            <type>16th</type>
            <beam number="1">continue</beam>
         </note>
         <note>
            <pitch>
               <step>E</step>
               <octave>5</octave>
            </pitch>
            <duration>1</duration>
            <voice>1</voice>
            <type>16th</type>
            <beam number="1">end</beam>
         </note>
      </measure>
      <measure number="2">
         <note>
            <pitch>
               <step>E</step>
               <octave>5</octave>
            </pitch>
            <duration>1</duration>
            <voice>1</voice>
            <type>16th</type>
            <beam number="1">begin</beam>
         </note>
         <note>
            <pitch>
               <step>F</step>
               <octave>5</octave>
            </pitch>
            <duration>1</duration>
            <voice>1</voice>
            <type>16th</type>
            <beam number="1">continue</beam>
         </note>
         <note>
            <pitch>
               <step>G</step>
               <octave>5</octave>
            </pitch>
            <duration>1</duration>
            <voice>1</voice>
            <type>16th</type>
            <beam number="1">continue</beam>
         </note>
         <note>
            <pitch>
               <step>A</step>
               <octave>5</octave>
            </pitch>
            <duration>1</duration>
            <voice>1</voice>
            <type>16th</type>
            <beam number="1">end</beam>
         </note>
         <note>
            <pitch>
               <step>B</step>
               <octave>5</octave>
            </pitch>
            <duration>1</duration>
            <voice>1</voice>
            <type>16th</type>
            <beam number="1">begin</beam>
         </note>
         <note>
            <pitch>
               <step>C</step>
               <octave>5</octave>
            </pitch>
            <duration>1</duration>
            <voice>1</voice>
            <type>16th</type>
            <beam number="1">continue</beam>
         </note>
         <note>
            <pitch>
               <step>D</step>
               <octave>5</octave>
            </pitch>
            <duration>1</duration>
            <voice>1</voice>
            <type>16th</type>
            <beam number="1">continue</beam>
         </note>
         <note>
            <pitch>
               <step>E</step>
               <octave>5</octave>
            </pitch>
            <duration>1</duration>
            <voice>1</voice>
            <type>16th</type>
            <beam number="1">end</beam>
         </note>
         <note>
            <pitch>
               <step>F</step>
               <octave>5</octave>
            </pitch>
            <duration>1</duration>
            <voice>1</voice>
            <type>16th</type>
            <beam number="1">begin</beam>
         </note>
         <note>
            <pitch>
               <step>G</step>
               <octave>5</octave>
            </pitch>
            <duration>1</duration>
            <voice>1</voice>
            <type>16th</type>
            <beam number="1">continue</beam>
         </note>
         <note>
            <pitch>
               <step>A</step>
               <octave>5</octave>
            </pitch>
            <duration>1</duration>
            <voice>1</voice>
            <type>16th</type>
            <beam number="1">continue</beam>
         </note>
         <note>
            <pitch>
               <step>B</step>
               <octave>5</octave>
            </pitch>
            <duration>1</duration>
            <voice>1</voice>
            <type>16th</type>
            <beam number="1">end</beam>
         </note>
         <note>
            <pitch>
               <step>C</step>
               <octave>5</octave>
            </pitch>
            <duration>1</duration>
            <voice>1</voice>
            <type>16th</type>
            <beam number="1">begin</beam>
         </note>
         <note>
            <pitch>
               <step>D</step>
               <octave>5</octave>
            </pitch>
            <duration>1</duration>
            <voice>1</voice>
            <type>16th</type>
            <beam number="1">continue</beam>
         </note>
         <note>
            <pitch>
               <step>E</step>
               <octave>5</octave>
            </pitch>
            <duration>1</duration>
            <voice>1</voice>
            <type>16th</type>
            <beam number="1">continue</beam>
         </note>
         <note>
            <pitch>
               <step>F</step>
               <octave>5</octave>
            </pitch>
            <duration>1</duration>
            <voice>1</voice>
            <type>16th</type>
            <beam number="1">end</beam>
         </note>
      </measure>
      <measure number="3">
         <note>
            <pitch>
               <step>F</step>
               <octave>5</octave>
            </pitch>
            <duration>1</duration>
            <voice>1</voice>
            <type>16th</type>
            <beam number="1">begin</beam>
         </note>
         <note>
            <pitch>
               <step>G</step>
               <octave>5</octave>
            </pitch>
            <duration>1</duration>
            <voice>1</voice>
            <type>16th</type>
            <beam number="1">continue</beam>
         </note>
         <note>
            <pitch>
               <step>A</step>
               <octave>5</octave>
            </pitch>
            <duration>1</duration>
            <voice>1</voice>
            <type>16th</type>
            <beam number="1">continue</beam>
         </note>
         <note>
            <pitch>
               <step>B</step>
               <octave>5</octave>
            </pitch>
            <duration>1</duration>
            <voice>1</voice>
            <type>16th</type>
            <beam number="1">end</beam>
         </note>
         <note>
            <pitch>
               <step>C</step>
               <octave>5</octave>
            </pitch>
            <duration>1</duration>
            <voice>1</voice>
            <type>16th</type>
            <beam number="1">begin</beam>
         </note>
         <note>
            <pitch>
               <step>D</step>
               <octave>5</octave>
            </pitch>
            <duration>1</duration>
            <voice>1</voice>
            <type>16th</type>
            <beam number="1">continue</beam>
         </note>
         <note>
            <pitch>
               <step>E</step>
               <octave>5</octave>
            </pitch>
            <duration>1</duration>
            <voice>1</voice>
            <type>16th</type>
            <beam number="1">continue</beam>
         </note>
         <note>
            <pitch>
               <step>F</step>
               <octave>5</octave>
            </pitch>
            <duration>1</duration>
            <voice>1</voice>
            <type>16th</type>
            <beam number="1">end</beam>
         </note>
         <note>
            <pitch>
               <step>G</step>
               <octave>5</octave>
            </pitch>
            <duration>1</duration>
            <voice>1</voice>
            <type>16th</type>
            <beam number="1">begin</beam>
         </note>
         <note>
            <pitch>
               <step>A</step>
               <octave>5</octave>
            </pitch>
            <duration>1</duration>
            <voice>1</voice>
            <type>16th</type>
            <beam number="1">continue</beam>
         </note>
         <note>
            <pitch>
               <step>B</step>
               <octave>5</octave>
            </pitch>
            <duration>1</duration>
            <voice>1</voice>
            <type>16th</type>
            <beam number="1">continue</beam>
         </note>
         <note>
            <pitch>
               <step>C</step>
               <octave>5</octave>
            </pitch>
            <duration>1</duration>
            <voice>1</voice>
            <type>16th</type>
            <beam number="1">end</beam>
         </note>
         <note>
            <pitch>
               <step>D</step>
               <octave>5</octave>
            </pitch>
            <duration>1</duration>
            <voice>1</voice>
            <type>16th</type>
            <beam number="1">begin</beam>
         </note>
         <note>
            <pitch>
               <step>E</step>
               <octave>5</octave>
            </pitch>
            <duration>1</duration>
            <voice>1</voice>
            <type>16th</type>
            <beam number="1">continue</beam>
         </note>
         <note>
            <pitch>
               <step>F</step>
               <octave>5</octave>
            </pitch>
            <duration>1</duration>
            <voice>1</voice>
            <type>16th</type>
            <beam number="1">continue</beam>
         </note>
         <note>
            <pitch>
               <step>G</step>
               <octave>5</octave>
            </pitch>
            <duration>1</duration>
            <voice>1</voice>
            <type>16th</type>
            <beam number="1">end</beam>
         </note>
      </measure>
      <measure number="4">
         <note>
            <pitch>
               <step>G</step>
               <octave>5</octave>
            </pitch>
            <duration>1</duration>
            <voice>1</voice>
            <type>16th</type>
            <beam number="1">begin</beam>
         </note>
         <note>
            <pitch>
               <step>A</step>
               <octave>5</octave>
            </pitch>
            <duration>1</duration>
            <voice>1</voice>
            <type>16th</type>
            <beam number="1">continue</beam>
         </note>
         <note>
            <pitch>
               <step>B</step>
               <octave>5</octave>
            </pitch>
            <duration>1</duration>
            <voice>1</voice>
            <type>16th</type>
            <beam number="1">continue</beam>
         </note>
         <note>
            <pitch>
               <step>C</step>
               <octave>5</octave>
            </pitch>
            <duration>1</duration>
            <voice>1</voice>
            <type>16th</type>
            <beam number="1">end</beam>
         </note>
         <note>
            <pitch>
               <step>D</step>
               <octave>5</octave>
            </pitch>
            <duration>1</duration>
            <voice>1</voice>
            <type>16th</type>
            <beam number="1">begin</beam>
         </note>
         <note>
            <pitch>
               <step>E</step>
               <octave>5</octave>
            </pitch>
            <duration>1</duration>
            <voice>1</voice>
            <type>16th</type>
            <beam number="1">continue</beam>
         </note>
         <note>
            <pitch>
               <step>F</step>
               <octave>5</octave>
            </pitch>
            <duration>1</duration>
            <voice>1</voice>
            <type>16th</type>
            <beam number="1">continue</beam>
         </note>
         <note>
            <pitch>
               <step>G</step>
               <octave>5</octave>
            </pitch>
            <duration>1</duration>
            <voice>1</voice>
            <type>16th</type>
            <beam number="1">end</beam>
         </note>
         <note>
            <pitch>
               <step>A</step>
               <octave>5</octave>
            </pitch>
            <duration>1</duration>
            <voice>1</voice>
            <type>16th</type>
            <beam number="1">begin</beam>
         </note>
         <note>
            <pitch>
               <step>B</step>
               <octave>5</octave>
            </pitch>
            <duration>1</duration>
            <voice>1</voice>
            <type>16th</type>
            <beam number="1">continue</beam>
         </note>
         <note>
            <pitch>
               <step>C</step>
               <octave>5</octave>
            </pitch>
            <duration>1</duration>
            <voice>1</voice>
            <type>16th</type>
            <beam number="1">continue</beam>
         </note>
         <note>
            <pitch>
               <step>D</step>
               <octave>5</octave>
            </pitch>
            <duration>1</duration>
            <voice>1</voice>
            <type>16th</type>
            <beam number="1">end</beam>
         </note>
         <note>
            <pitch>
               <step>E</step>
               <octave>6</octave>
            </pitch>
            <duration>1</duration>
            <voice>1</voice>
            <type>16th</type>
            <beam number="1">begin</beam>
         </note>
         <note>
            <pitch>
               <step>F</step>
               <octave>6</octave>
            </pitch>
            <duration>1</duration>
            <voice>1</voice>
            <type>16th</type>
            <beam number="1">continue</beam>
         </note>
         <note>
            <pitch>
               <step>G</step>
               <octave>6</octave>
            </pitch>
            <duration>1</duration>
            <voice>1</voice>
            <type>16th</type>
            <beam number="1">continue</beam>
         </note>
         <note>
            <pitch>
               <step>A</step>
               <octave>6</octave>
            </pitch>
            <duration>1</duration>
            <voice>1</voice>
            <type>16th</type>
            <beam number="1">end</beam>
         </note>
      </measure>
      <measure number="5">
         <note>
            <pitch>
               <step>A</step>
               <octave>5</octave>
            </pitch>
            <duration>1</duration>
            <voice>1</voice>
            <type>16th</type>
            <beam number="1">begin</beam>
         </note>
         <note>
            <pitch>
               <step>B</step>
               <octave>5</octave>
            </pitch>
            <duration>1</duration>
            <voice>1</voice>
            <type>16th</type>
            <beam number="1">continue</beam>
         </note>
         <note>
            <pitch>
               <step>C</step>
               <octave>5</octave>
            </pitch>
            <duration>1</duration>
            <voice>1</voice>
            <type>16th</type>
            <beam number="1">continue</beam>
         </note>
         <note>
            <pitch>
               <step>D</step>
               <octave>5</octave>
            </pitch>
            <duration>1</duration>
            <voice>1</voice>
            <type>16th</type>
            <beam number="1">end</beam>
         </note>
         <note>
            <pitch>
               <step>E</step>
               <octave>5</octave>
            </pitch>
            <duration>1</duration>
            <voice>1</voice>
            <type>16th</type>
            <beam number="1">begin</beam>
         </note>
         <note>
            <pitch>
               <step>F</step>
               <octave>5</octave>
            </pitch>
            <duration>1</duration>
            <voice>1</voice>
            <type>16th</type>
            <beam number="1">continue</beam>
         </note>
         <note>
            <pitch>
               <step>G</step>
               <octave>5</octave>
            </pitch>
            <duration>1</duration>
            <voice>1</voice>
            <type>16th</type>
            <beam number="1">continue</beam>
         </note>
         <note>
            <pitch>
               <step>A</step>
               <octave>5</octave>
            </pitch>
            <duration>1</duration>
            <voice>1</voice>
            <type>16th</type>
            <beam number="1">end</beam>
         </note>
         <note>
            <pitch>
               <step>B</step>
               <octave>6</octave>
            </pitch>
            <duration>1</duration>
            <voice>1</voice>
            <type>16th</type>
            <beam number="1">begin</beam>
         </note>
         <note>
            <pitch>
               <step>C</step>
               <octave>6</octave>
            </pitch>
            <duration>1</duration>
            <voice>1</voice>
            <type>16th</type>
            <beam number="1">continue</beam>
         </note>
         <note>
            <pitch>
               <step>D</step>
               <octave>6</octave>
            </pitch>
            <duration>1</duration>
            <voice>1</voice>
            <type>16th</type>
            <beam number="1">continue</beam>
         </note>
         <note>
            <pitch>
               <step>E</step>
               <octave>6</octave>
            </pitch>
            <duration>1</duration>
            <voice>1</voice>
            <type>16th</type>
            <beam number="1">end</beam>
         </note>
         <note>
            <pitch>
               <step>F</step>
               <octave>6</octave>
            </pitch>
            <duration>1</duration>
            <voice>1</voice>
            <type>16th</type>
            <beam number="1">begin</beam>
         </note>
         <note>
            <pitch>
               <step>G</step>
               <octave>6</octave>
            </pitch>
            <duration>1</duration>
            <voice>1</voice>
            <type>16th</type>
            <beam number="1">continue</beam>
         </note>
         <note>
            <pitch>
               <step>A</step>
               <octave>6</octave>
            </pitch>
            <duration>1</duration>
            <voice>1</voice>
            <type>16th</type>
            <beam number="1">continue</beam>
         </note>
         <note>
            <pitch>
               <step>B</step>
               <octave>6</octave>
            </pitch>
            <duration>1</duration>
            <voice>1</voice>
            <type>16th</type>
            <beam number="1">end</beam>
         </note>
      </measure>
      <measure number="6">
         <note>
            <pitch>
               <step>B</step>
               <octave>5</octave>
            </pitch>
            <duration>1</duration>
            <voice>1</voice>
            <type>16th</type>
            <beam number="1">begin</beam>
         </note>
         <note>
            <pitch>
               <step>C</step>
               <octave>5</octave>
            </pitch>
            <duration>1</duration>
            <voice>1</voice>
            <type>16th</type>
            <beam number="1">continue</beam>
         </note>
         <note>
            <pitch>
               <step>D</step>
               <octave>5</octave>
            </pitch>
            <duration>1</duration>
            <voice>1</voice>
            <type>16th</type>
            <beam number="1">continue</beam>
         </note>
         <note>
            <pitch>
               <step>E</step>
               <octave>5</octave>
            </pitch>
            <duration>1</duration>
            <voice>1</voice>
            <type>16th</type>
            <beam number="1">end</beam>
         </note>
         <note>
            <pitch>
               <step>F</step>
               <octave>6</octave>
            </pitch>
            <duration>1</duration>
            <voice>1</voice>
            <type>16th</type>
            <beam number="1">begin</beam>
         </note>
         <note>
            <pitch>
               <step>G</step>
               <octave>6</octave>
            </pitch>
            <duration>1</duration>
            <voice>1</voice>
            <type>16th</type>
            <beam number="1">continue</beam>
         </note>
         <note>
            <pitch>
               <step>A</step>
               <octave>6</octave>
            </pitch>
            <duration>1</duration>
            <voice>1</voice>
            <type>16th</type>
            <beam number="1">continue</beam>
         </note>
         <note>
            <pitch>
               <step>B</step>
               <octave>6</octave>
            </pitch>
            <duration>1</duration>
            <voice>1</voice>
            <type>16th</type>
            <beam number="1">end</beam>
         </note>
         <note>
            <pitch>
               <step>C</step>
               <octave>6</octave>
            </pitch>
            <duration>1</duration>
            <voice>1</voice>
            <type>16th</type>
            <beam number="1">begin</beam>
         </note>
         <note>
            <pitch>
               <step>D</step>
               <octave>6</octave>
            </pitch>
            <duration>1</duration>
            <voice>1</voice>
            <type>16th</type>
            <beam number="1">continue</beam>
         </note>
         <note>
            <pitch>
               <step>E</step>
               <octave>6</octave>
            </pitch>
            <duration>1</duration>
            <voice>1</voice>
            <type>16th</type>
            <beam number="1">continue</beam>
         </note>
         <note>
            <pitch>
               <step>F</step>
               <octave>6</octave>
            </pitch>
            <duration>1</duration>
            <voice>1</voice>
            <type>16th</type>
            <beam number="1">end</beam>
         </note>
         <note>
            <pitch>
               <step>G</step>
               <octave>6</octave>
            </pitch>
            <duration>1</duration>
            <voice>1</voice>
            <type>16th</type>
            <beam number="1">begin</beam>
         </note>
         <note>
            <pitch>
               <step>A</step>
               <octave>6</octave>
            </pitch>
            <duration>1</duration>
            <voice>1</voice>
            <type>16th</type>
            <beam number="1">continue</beam>
         </note>
         <note>
            <pitch>
               <step>B</step>
               <octave>6</octave>
            </pitch>
            <duration>1</duration>
            <voice>1</voice>
            <type>16th</type>
            <beam number="1">continue</beam>
         </note>
         <note>
            <pitch>
               <step>C</step>
               <octave>6</octave>
            </pitch>
            <duration>1</duration>
            <voice>1</voice>
            <type>16th</type>
            <beam number="1">end</beam>
         </note>
      </measure>
      <measure number="7">
         <note>
            <pitch>
               <step>C</step>
               <octave>6</octave>
            </pitch>
            <duration>1</duration>
            <voice>1</voice>
            <type>16th</type>
            <beam number="1">begin</beam>
         </note>
         <note>
            <pitch>
               <step>D</step>
               <octave>6</octave>
            </pitch>
            <duration>1</duration>
            <voice>1</voice>
            <type>16th</type>
            <beam number="1">continue</beam>
         </note>
         <note>
            <pitch>
               <step>E</step>
               <octave>6</octave>
            </pitch>
            <duration>1</duration>
            <voice>1</voice>
            <type>16th</type>
            <beam number="1">continue</beam>
         </note>
         <note>
            <pitch>
               <step>F</step>
               <octave>6</octave>
            </pitch>
            <duration>1</duration>
            <voice>1</voice>
            <type>16th</type>
            <beam number="1">end</beam>
         </note>
         <note>
            <pitch>
               <step>G</step>
               <octave>6</octave>
            </pitch>
            <duration>1</duration>
            <voice>1</voice>
            <type>16th</type>
            <beam number="1">begin</beam>
         </note>
         <note>
            <pitch>
               <step>A</step>
               <octave>6</octave>
            </pitch>
            <duration>1</duration>
            <voice>1</voice>
            <type>16th</type>
            <beam number="1">continue</beam>
         </note>
         <note>
            <pitch>
               <step>B</step>
               <octave>6</octave>
            </pitch>
            <duration>1</duration>
            <voice>1</voice>
            <type>16th</type>
            <beam number="1">continue</beam>
         </note>
         <note>
            <pitch>
               <step>C</step>
               <octave>6</octave>
            </pitch>
            <duration>1</duration>
            <voice>1</voice>
            <type>16th</type>
            <beam number="1">end</beam>
         </note>
         <note>
            <pitch>
               <step>D</step>
               <octave>6</octave>
            </pitch>
            <duration>1</duration>
            <voice>1</voice>
            <type>16th</type>
            <beam number="1">begin</beam>
         </note>
         <note>
            <pitch>
               <step>E</step>
               <octave>6</octave>
            </pitch>
            <duration>1</duration>
            <voice>1</voice>
            <type>16th</type>
            <beam number="1">continue</beam>
         </note>
         <note>
            <pitch>
               <step>F</step>
               <octave>6</octave>
            </pitch>
            <duration>1</duration>
            <voice>1</voice>
            <type>16th</type>
            <beam number="1">continue</beam>
         </note>
         <note>
            <pitch>
               <step>G</step>
               <octave>6</octave>
            </pitch>
            <duration>1</duration>
            <voice>1</voice>
            <type>16th</type>
            <beam number="1">end</beam>
         </note>
         <note>
            <pitch>
               <step>A</step>
               <octave>6</octave>
            </pitch>
            <duration>1</duration>
            <voice>1</voice>
            <type>16th</type>
            <beam number="1">begin</beam>
         </note>
         <note>
            <pitch>
               <step>B</step>
               <octave>6</octave>
            </pitch>
            <duration>1</duration>
            <voice>1</voice>
            <type>16th</type>
            <beam number="1">continue</beam>
         </note>
         <note>
            <pitch>
               <step>C</step>
               <octave>6</octave>
            </pitch>
            <duration>1</duration>
            <voice>1</voice>
            <type>16th</type>
            <beam number="1">continue</beam>
         </note>
         <note>
            <pitch>
               <step>D</step>
               <octave>6</octave>
            </pitch>
            <duration>1</duration>
            <voice>1</voice>
            <type>16th</type>
            <beam number="1">end</beam>
         </note>
      </measure>
      <measure number="8">
         <note>
            <pitch>
               <step>D</step>
               <octave>6</octave>
            </pitch>
            <duration>1</duration>
            <voice>1</voice>
            <type>16th</type>
            <beam number="1">begin</beam>
         </note>
         <note>
            <pitch>
               <step>E</step>
               <octave>6</octave>
            </pitch>
            <duration>1</duration>
            <voice>1</voice>
            <type>16th</type>
            <beam number="1">continue</beam>
         </note>
         <note>
            <pitch>
               <step>F</step>
               <octave>6</octave>
            </pitch>
            <duration>1</duration>
            <voice>1</voice>
            <type>16th</type>
            <beam number="1">continue</beam>
         </note>
         <note>
            <pitch>
               <step>G</step>
               <octave>6</octave>
            </pitch>
            <duration>1</duration>
            <voice>1</voice>
            <type>16th</type>
            <beam number="1">end</beam>
         </note>
         <note>
            <pitch>
               <step>A</step>
               <octave>6</octave>
            </pitch>
            <duration>1</duration>
            <voice>1</voice>
            <type>16th</type>
            <beam number="1">begin</beam>
         </note>
         <note>
            <pitch>
               <step>B</step>
               <octave>6</octave>
            </pitch>
            <duration>1</duration>
            <voice>1</voice>
            <type>16th</type>
            <beam number="1">continue</beam>
         </note>
         <note>
            <pitch>
               <step>C</step>
               <octave>6</octave>
            </pitch>
            <duration>1</duration>
            <voice>1</voice>
            <type>16th</type>
            <beam number="1">continue</beam>
         </note>
         <note>
            <pitch>
               <step>D</step>
               <octave>6</octave>
            </pitch>
            <duration>1</duration>
            <voice>1</voice>
            <type>16th</type>
            <beam number="1">end</beam>
         </note>
         <note>
            <pitch>
               <step>E</step>
               <octave>6</octave>
            </pitch>
            <duration>1</duration>
            <voice>1</voice>
            <type>16th</type>
            <beam number="1">begin</beam>
         </note>
         <note>
            <pitch>
               <step>F</step>
               <octave>6</octave>
            </pitch>
            <duration>1</duration>
            <voice>1</voice>
            <type>16th</type>
            <beam number="1">continue</beam>
         </note>
         <note>
            <pitch>
               <step>G</step>
               <octave>6</octave>
            </pitch>
            <duration>1</duration>
            <voice>1</voice>
            <type>16th</type>
            <beam number="1">continue</beam>
         </note>
         <note>
            <pitch>
               <step>A</step>
               <octave>6</octave>
            </pitch>
            <duration>1</duration>
            <voice>1</voice>
            <type>16th</type>
            <beam number="1">end</beam>
         </note>
         <note>
            <pitch>
               <step>B</step>
               <octave>6</octave>
            </pitch>
            <duration>1</duration>
            <voice>1</voice>
            <type>16th</type>
            <beam number="1">begin</beam>
         </note>
         <note>
            <pitch>
               <step>C</step>
               <octave>6</octave>
            </pitch>
            <duration>1</duration>
            <voice>1</voice>
            <type>16th</type>
            <beam number="1">continue</beam>
         </note>
         <note>
            <pitch>
               <step>D</step>
               <octave>6</octave>
            </pitch>
            <duration>1</duration>
            <voice>1</voice>
            <type>16th</type>
            <beam number="1">continue</beam>
         </note>
         <note>
            <pitch>
               <step>E</step>
               <octave>6</octave>
            </pitch>
            <duration>1</duration>
            <voice>1</voice>
            <type>16th</type>
            <beam number="1">end</beam>
         </note>
      </measure>
      <measure number="9">
         <note>
            <pitch>
               <step>E</step>
               <octave>6</octave>
            </pitch>
            <duration>1</duration>
            <voice>1</voice>
            <type>16th</type>
            <beam number="1">begin</beam>
         </note>
         <note>
            <pitch>
               <step>F</step>
               <octave>6</octave>
            </pitch>
            <duration>1</duration>
            <voice>1</voice>
            <type>16th</type>
            <beam number="1">continue</beam>
         </note>
         <note>
            <pitch>
               <step>G</step>
               <octave>6</octave>
            </pitch>
            <duration>1</duration>
            <voice>1</voice>
            <type>16th</type>
            <beam number="1">continue</beam>
         </note>
         <note>
            <pitch>
               <step>A</step>
               <octave>6</octave>
            </pitch>
            <duration>1</duration>
            <voice>1</voice>
            <type>16th</type>
            <beam number="1">end</beam>
         </note>
         <note>
            <pitch>
               <step>B</step>
               <octave>6</octave>
            </pitch>
            <duration>1</duration>
            <voice>1</voice>
            <type>16th</type>
            <beam number="1">begin</beam>
         </note>
         <note>
            <pitch>
               <step>C</step>
               <octave>6</octave>
            </pitch>
            <duration>1</duration>
            <voice>1</voice>
            <type>16th</type>
            <beam number="1">continue</beam>
         </note>
         <note>
            <pitch>
               <step>D</step>
               <octave>6</octave>
            </pitch>
            <duration>1</duration>
            <voice>1</voice>
            <type>16th</type>
            <beam number="1">continue</beam>
         </note>
         <note>
            <pitch>
               <step>E</step>
               <octave>6</octave>
            </pitch>
            <duration>1</duration>
            <voice>1</voice>
            <type>16th</type>
            <beam number="1">end</beam>
         </note>
         <note>
            <pitch>
               <step>F</step>
               <octave>6</octave>
            </pitch>
            <duration>1</duration>
            <voice>1</voice>
            <type>16th</type>
            <beam number="1">begin</beam>
         </note>
         <note>
            <pitch>
               <step>G</step>
               <octave>6</octave>
            </pitch>
            <duration>1</duration>
            <voice>1</voice>
            <type>16th</type>
            <beam number="1">continue</beam>
         </note>
         <note>
            <pitch>
               <step>A</step>
               <octave>6</octave>
            </pitch>
            <duration>1</duration>
            <voice>1</voice>
            <type>16th</type>
            <beam number="1">continue</beam>
         </note>
         <note>
            <pitch>
               <step>B</step>
               <octave>6</octave>
            </pitch>
            <duration>1</duration>
            <voice>1</voice>
            <type>16th</type>
            <beam number="1">end</beam>
         </note>
         <note>
            <pitch>
               <step>C</step>
               <octave>6</octave>
            </pitch>
            <duration>1</duration>
            <voice>1</voice>
            <type>16th</type>
            <beam number="1">begin</beam>
         </note>
         <note>
            <pitch>
               <step>D</step>
               <octave>6</octave>
            </pitch>
            <duration>1</duration>
            <voice>1</voice>
            <type>16th</type>
            <beam number="1">continue</beam>
         </note>
         <note>
            <pitch>
               <step>E</step>
               <octave>6</octave>
            </pitch>
            <duration>1</duration>
            <voice>1</voice>
            <type>16th</type>
            <beam number="1">continue</beam>
         </note>
         <note>
            <pitch>
               <step>F</step>
               <octave>6</octave>
            </pitch>
            <duration>1</duration>
            <voice>1</voice>
            <type>16th</type>
            <beam number="1">end</beam>
         </note>
      </measure>
      <measure number="10">
         <note>
            <pitch>
               <step>F</step>
               <octave>6</octave>
            </pitch>
            <duration>1</duration>
            <voice>1</voice>
            <type>16th</type>
            <beam number="1">begin</beam>
         </note>
         <note>
            <pitch>
               <step>G</step>
               <octave>6</octave>
            </pitch>
            <duration>1</duration>
            <voice>1</voice>
            <type>16th</type>
            <beam number="1">continue</beam>
         </note>
         <note>
            <pitch>
               <step>A</step>
               <octave>6</octave>
            </pitch>
            <duration>1</duration>
            <voice>1</voice>
            <type>16th</type>
            <beam number="1">continue</beam>
         </note>
         <note>
            <pitch>
               <step>B</step>
               <octave>6</octave>
            </pitch>
            <duration>1</duration>
            <voice>1</voice>
            <type>16th</type>
            <beam number="1">end</beam>
         </note>
         <note>
            <pitch>
               <step>C</step>
               <octave>6</octave>
            </pitch>
            <duration>1</duration>
            <voice>1</voice>
            <type>16th</type>
            <beam number="1">begin</beam>
         </note>
         <note>
            <pitch>
               <step>D</step>
               <octave>6</octave>
            </pitch>
            <duration>1</duration>
            <voice>1</voice>
            <type>16th</type>
            <beam number="1">continue</beam>
         </note>
         <note>
            <pitch>
               <step>E</step>
               <octave>6</octave>
            </pitch>
            <duration>1</duration>
            <voice>1</voice>
            <type>16th</type>
            <beam number="1">continue</beam>
         </note>
         <note>
            <pitch>
               <step>F</step>
               <octave>6</octave>
            </pitch>
            <duration>1</duration>
            <voice>1</voice>
            <type>16th</type>
            <beam number="1">end</beam>
         </note>
         <note>
            <pitch>
               <step>G</step>
               <octave>6</octave>
            </pitch>
            <duration>1</duration>
            <voice>1</voice>
            <type>16th</type>
            <beam number="1">begin</beam>
         </note>
         <note>
            <pitch>
               <step>A</step>
               <octave>6</octave>
            </pitch>
            <duration>1</duration>
            <voice>1</voice>
            <type>16th</type>
            <beam number="1">continue</beam>
         </note>
         <note>
            <pitch>
               <step>B</step>
               <octave>6</octave>
            </pitch>
            <duration>1</duration>
            <voice>1</voice>
            <type>16th</type>
            <beam number="1">continue</beam>
         </note>
         <note>
            <pitch>
               <step>C</step>
               <octave>6</octave>
            </pitch>
            <duration>1</duration>
            <voice>1</voice>
            <type>16th</type>
            <beam number="1">end</beam>
         </note>
         <note>
            <pitch>
               <step>D</step>
               <octave>6</octave>
            </pitch>
            <duration>1</duration>
            <voice>1</voice>
            <type>16th</type>
            <beam number="1">begin</beam>
         </note>
         <note>
            <pitch>
               <step>E</step>
               <octave>6</octave>
            </pitch>
            <duration>1</duration>
            <voice>1</voice>
            <type>16th</type>
            <beam number="1">continue</beam>
         </note>
         <note>
            <pitch>
               <step>F</step>
               <octave>6</octave>
            </pitch>
            <duration>1</duration>
            <voice>1</voice>
            <type>16th</type>
            <beam number="1">continue</beam>
         </note>
         <note>
            <pitch>
               <step>G</step>
               <octave>6</octave>
            </pitch>
            <duration>1</duration>
            <voice>1</voice>
            <type>16th</type>
            <beam number="1">end</beam>
         </note>
      </measure>
      <measure number="11">
         <direction placement="below">
            <direction-type>
               <wedge type="crescendo" number="1"/>
            </direction-type>
         </direction>
         <note>
            <pitch>
               <step>G</step>
               <octave>5</octave>
            </pitch>
            <duration>16</duration>
            <voice>1</voice>
            <type>whole</type>
            <notations>
               <slur type="start" number="1"/>
            </notations>
         </note>
      </measure>
      <measure number="12">
         <direction placement="below">
            <direction-type>
               <wedge type="stop" number="1"/>
            </direction-type>
         </direction>
         <note>
            <pitch>
               <step>A</step>
               <octave>5</octave>
            </pitch>
            <duration>16</duration>
            <voice>1</voice>
            <type>whole</type>
            <notations>
               <slur type="stop" number="1"/>
            </notations>
         </note>
      </measure>
      <measure number="13">
         <direction placement="below">
            <direction-type>
               <wedge type="diminuendo" number="1"/>
            </direction-type>
         </direction>
         <note>
            <pitch>
               <step>B</step>
               <octave>5</octave>
            </pitch>
            <duration>16</duration>
            <voice>1</voice>
            <type>whole</type>
            <notations>
               <slur type="start" number="1"/>
            </notations>
         </note>
      </measure>
      <measure number="14">
         <direction placement="below">
            <direction-type>
               <wedge type="stop" number="1"/>
            </direction-type>
         </direction>
         <note>
            <pitch>
               <step>C</step>
               <octave>5</octave>
            </pitch>
            <duration>16</duration>
            <voice>1</voice>
            <type>whole</type>
            <notations>
               <slur type="stop" number="1"/>
            </notations>
         </note>
      </measure>
      <measure number="15">
         <direction placement="below">
            <direction-type>
               <wedge type="crescendo" number="1"/>
            </direction-type>
         </direction>
         <note>
            <pitch>
               <step>D</step>
               <octave>5</octave>
            </pitch>
            <duration>16</duration>
            <voice>1</voice>
            <type>whole</type>
            <notations>
               <slur type="start" number="1"/>
            </notations>
         </note>
      </measure>
      <measure number="16">
         <direction placement="below">
            <direction-type>
               <wedge type="stop" number="1"/>
            </direction-type>
         </direction>
         <note>
            <pitch>
               <step>E</step>
               <octave>5</octave>
            </pitch>
            <duration>16</duration>
            <voice>1</voice>
            <type>whole</type>
            <notations>
               <slur type="stop" number="1"/>
            </notations>
         </note>
      </measure>
      <measure number="17">
         <direction placement="below">
            <direction-type>
               <wedge type="diminuendo" number="1"/>
            </direction-type>
         </direction>
         <note>
            <pitch>
               <step>F</step>
               <octave>5</octave>
            </pitch>
            <duration>16</duration>
            <voice>1</voice>
            <type>whole</type>
            <notations>
               <slur type="start" number="1"/>
            </notations>
         </note>
      </measure>
      <measure number="18">
         <direction placement="below">
            <direction-type>
               <wedge type="stop" number="1"/>
            </direction-type>
         </direction>
         <note>
            <pitch>
               <step>G</step>
               <octave>5</octave>
            </pitch>
            <duration>16</duration>
            <voice>1</voice>
            <type>whole</type>
            <notations>
               <slur type="stop" number="1"/>
            </notations>
         </note>
      </measure>
      <measure number="19">
         <direction placement="below">
            <direction-type>
               <wedge type="crescendo" number="1"/>
            </direction-type>
         </direction>
         <note>
            <pitch>
               <step>A</step>
               <octave>5</octave>
            </pitch>
            <duration>16</duration>
            <voice>1</voice>
            <type>whole</type>
            <notations>
               <slur type="start" number="1"/>
            </notations>
         </note>
      </measure>
      <measure number="20">
         <direction placement="below">
            <direction-type>
               <wedge type="stop" number="1"/>
            </direction-type>
         </direction>
         <note>
            <pitch>
               <step>B</step>
               <octave>5</octave>
            </pitch>
            <duration>16</duration>
            <voice>1</voice>
            <type>whole</type>
            <notations>
               <slur type="stop" number="1"/>
            </notations>
         </note>
      </measure>
      <measure number="21">
         <note>
            <pitch>
               <step>C</step>
               <octave>4</octave>
            </pitch>
            <duration>4</duration>
            <voice>1</voice>
            <type>quarter</type>
            <notations>
               <articulations>
                  <staccato/>
               </articulations>
            </notations>
         </note>
         <note>
            <pitch>
               <step>C</step>
               <octave>4</octave>
            </pitch>
            <duration>4</duration>
            <voice>1</voice>
            <type>quarter</type>
            <notations>
               <articulations>
                  <accent/>
               </articulations>
            </notations>
         </note>
         <note>
            <pitch>
               <step>C</step>
               <octave>4</octave>
            </pitch>
            <duration>4</duration>
            <voice>1</voice>
            <type>quarter</type>
            <notations>
               <articulations>
                  <staccato/>
               </articulations>
            </notations>
         </note>
         <note>
            <pitch>
               <step>C</step>
               <octave>4</octave>
            </pitch>
            <duration>4</duration>
            <voice>1</voice>
            <type>quarter</type>
            <notations>
               <articulations>
                  <accent/>
               </articulations>
            </notations>
         </note>
      </measure>
      <measure number="22">
         <note>
            <pitch>
               <step>C</step>
               <octave>4</octave>
            </pitch>
            <duration>4</duration>
            <voice>1</voice>
            <type>quarter</type>
            <notations>
               <articulations>
                  <staccato/>
               </articulations>
            </notations>
         </note>
         <note>
            <pitch>
               <step>D</step>
               <octave>4</octave>
            </pitch>
            <duration>4</duration>
            <voice>1</voice>
            <type>quarter</type>
            <notations>
               <articulations>
                  <accent/>
               </articulations>
            </notations>
         </note>
         <note>
            <pitch>
               <step>E</step>
               <octave>4</octave>
            </pitch>
            <duration>4</duration>
            <voice>1</voice>
            <type>quarter</type>
            <notations>
               <articulations>
                  <staccato/>
               </articulations>
            </notations>
         </note>
         <note>
            <pitch>
               <step>F</step>
               <octave>4</octave>
            </pitch>
            <duration>4</duration>
            <voice>1</voice>
            <type>quarter</type>
            <notations>
               <articulations>
                  <accent/>
               </articulations>
            </notations>
         </note>
      </measure>
      <measure number="23">
         <note>
            <pitch>
               <step>C</step>
               <octave>4</octave>
            </pitch>
            <duration>4</duration>
            <voice>1</voice>
            <type>quarter</type>
            <notations>
               <articulations>
                  <staccato/>
               </articulations>
            </notations>
         </note>
         <note>
            <pitch>
               <step>E</step>
               <octave>4</octave>
            </pitch>
            <duration>4</duration>
            <voice>1</voice>
            <type>quarter</type>
            <notations>
               <articulations>
                  <accent/>
               </articulations>
            </notations>
         </note>
         <note>
            <pitch>
               <step>G</step>
               <octave>4</octave>
            </pitch>
            <duration>4</duration>
            <voice>1</voice>
            <type>quarter</type>
            <notations>
               <articulations>
                  <staccato/>
               </articulations>
            </notations>
         </note>
         <note>
            <pitch>
               <step>B</step>
               <octave>4</octave>
            </pitch>
            <duration>4</duration>
            <voice>1</voice>
            <type>quarter</type>
            <notations>
               <articulations>
                  <accent/>
               </articulations>
            </notations>
         </note>
      </measure>
      <measure number="24">
         <note>
            <pitch>
               <step>C</step>
               <octave>4</octave>
            </pitch>
            <duration>4</duration>
            <voice>1</voice>
            <type>quarter</type>
            <notations>
               <articulations>
                  <staccato/>
               </articulations>
            </notations>
         </note>
         <note>
            <pitch>
               <step>F</step>
               <octave>4</octave>
            </pitch>
            <duration>4</duration>
            <voice>1</voice>
            <type>quarter</type>
            <notations>
               <articulations>
                  <accent/>
               </articulations>
            </notations>
         </note>
         <note>
            <pitch>
               <step>B</step>
               <octave>4</octave>
            </pitch>
            <duration>4</duration>
            <voice>1</voice>
            <type>quarter</type>
            <notations>
               <articulations>
                  <staccato/>
               </articulations>
            </notations>
         </note>
         <note>
            <pitch>
               <step>E</step>
               <octave>4</octave>
            </pitch>
            <duration>4</duration>
            <voice>1</voice>
            <type>quarter</type>
            <notations>
               <articulations>
                  <accent/>
               </articulations>
            </notations>
         </note>
      </measure>
      <measure number="25">
         <note>
            <pitch>
               <step>C</step>
               <octave>4</octave>
            </pitch>
            <duration>4</duration>
            <voice>1</voice>
            <type>quarter</type>
            <notations>
               <articulations>
                  <staccato/>
               </articulations>
            </notations>
         </note>
         <note>
            <pitch>
               <step>G</step>
               <octave>4</octave>
            </pitch>
            <duration>4</duration>
            <voice>1</voice>
            <type>quarter</type>
            <notations>
               <articulations>
                  <accent/>
               </articulations>
            </notations>
         </note>
         <note>
            <pitch>
               <step>D</step>
               <octave>4</octave>
            </pitch>
            <duration>4</duration>
            <voice>1</voice>
            <type>quarter</type>
            <notations>
               <articulations>
                  <staccato/>
               </articulations>
            </notations>
         </note>
         <note>
            <pitch>
               <step>A</step>
               <octave>4</octave>
            </pitch>
            <duration>4</duration>
            <voice>1</voice>
            <type>quarter</type>
            <notations>
               <articulations>
                  <accent/>
               </articulations>
            </notations>
         </note>
      </measure>
      <measure number="26">
         <note>
            <pitch>
               <step>C</step>
               <octave>4</octave>
            </pitch>
            <duration>4</duration>
            <voice>1</voice>
            <type>quarter</type>
            <notations>
               <articulations>
                  <staccato/>
               </articulations>
            </notations>
         </note>
         <note>
            <pitch>
               <step>A</step>
               <octave>4</octave>
            </pitch>
            <duration>4</duration>
            <voice>1</voice>
            <type>quarter</type>
            <notations>
               <articulations>
                  <accent/>
               </articulations>
            </notations>
         </note>
         <note>
            <pitch>
               <step>F</step>
               <octave>4</octave>
            </pitch>
            <duration>4</duration>
            <voice>1</voice>
            <type>quarter</type>
            <notations>
               <articulations>
                  <staccato/>
               </articulations>
            </notations>
         </note>
         <note>
            <pitch>
               <step>D</step>
               <octave>4</octave>
            </pitch>
            <duration>4</duration>
            <voice>1</voice>
            <type>quarter</type>
            <notations>
               <articulations>
                  <accent/>
               </articulations>
            </notations>
         </note>
      </measure>
      <measure number="27">
         <note>
            <pitch>
               <step>C</step>
               <octave>4</octave>
            </pitch>
            <duration>4</duration>
            <voice>1</voice>
            <type>quarter</type>
            <notations>
               <articulations>
                  <staccato/>
               </articulations>
            </notations>
         </note>
         <note>
            <pitch>
               <step>B</step>
               <octave>4</octave>
            </pitch>
            <duration>4</duration>
            <voice>1</voice>
            <type>quarter</type>
            <notations>
               <articulations>
                  <accent/>
               </articulations>
            </notations>
         </note>
         <note>
            <pitch>
               <step>A</step>
               <octave>4</octave>
            </pitch>
            <duration>4</duration>
            <voice>1</voice>
            <type>quarter</type>
            <notations>
               <articulations>
                  <staccato/>
               </articulations>
            </notations>
         </note>
         <note>
            <pitch>
               <step>G</step>
               <octave>4</octave>
            </pitch>
            <duration>4</duration>
            <voice>1</voice>
            <type>quarter</type>
            <notations>
               <articulations>
                  <accent/>
               </articulations>
            </notations>
         </note>
      </measure>
      <measure number="28">
         <note>
            <pitch>
               <step>C</step>
               <octave>4</octave>
            </pitch>
            <duration>4</duration>
            <voice>1</voice>
            <type>quarter</type>
            <notations>
               <articulations>
                  <staccato/>
               </articulations>
            </notations>
         </note>
         <note>
            <pitch>
               <step>C</step>
               <octave>4</octave>
            </pitch>
            <duration>4</duration>
            <voice>1</voice>
            <type>quarter</type>
            <notations>
               <articulations>
                  <accent/>
               </articulations>
            </notations>
         </note>
         <note>
            <pitch>
               <step>C</step>
               <octave>4</octave>
            </pitch>
            <duration>4</duration>
            <voice>1</voice>
            <type>quarter</type>
            <notations>
               <articulations>
                  <staccato/>
               </articulations>
            </notations>
         </note>
         <note>
            <pitch>
               <step>C</step>
               <octave>4</octave>
            </pitch>
            <duration>4</duration>
            <voice>1</voice>
            <type>quarter</type>
            <notations>
               <articulations>
                  <accent/>
               </articulations>
            </notations>
         </note>
      </measure>
      <measure number="29">
         <note>
            <pitch>
               <step>C</step>
               <octave>4</octave>
            </pitch>
            <duration>4</duration>
            <voice>1</voice>
            <type>quarter</type>
            <notations>
               <articulations>
                  <staccato/>
               </articulations>
            </notations>
         </note>
         <note>
            <pitch>
               <step>D</step>
               <octave>4</octave>
            </pitch>
            <duration>4</duration>
            <voice>1</voice>
            <type>quarter</type>
            <notations>
               <articulations>
                  <accent/>
               </articulations>
            </notations>
         </note>
         <note>
            <pitch>
               <step>E</step>
               <octave>4</octave>
            </pitch>
            <duration>4</duration>
            <voice>1</voice>
            <type>quarter</type>
            <notations>
               <articulations>
                  <staccato/>
               </articulations>
            </notations>
         </note>
         <note>
            <pitch>
               <step>F</step>
               <octave>4</octave>
            </pitch>
            <duration>4</duration>
            <voice>1</voice>
            <type>quarter</type>
            <notations>
               <articulations>
                  <accent/>
               </articulations>
            </notations>
         </note>
      </measure>
      <measure number="30">
         <note>
            <pitch>
               <step>C</step>
               <octave>4</octave>
            </pitch>
            <duration>4</duration>
            <voice>1</voice>
            <type>quarter</type>
            <notations>
               <articulations>
                  <staccato/>
               </articulations>
            </notations>
         </note>
         <note>
            <pitch>
               <step>E</step>
               <octave>4</octave>
            </pitch>
            <duration>4</duration>
            <voice>1</voice>
            <type>quarter</type>
            <notations>
               <articulations>
                  <accent/>
               </articulations>
            </notations>
         </note>
         <note>
            <pitch>
               <step>G</step>
               <octave>4</octave>
            </pitch>
            <duration>4</duration>
            <voice>1</voice>
            <type>quarter</type>
            <notations>
               <articulations>
                  <staccato/>
               </articulations>
            </notations>
         </note>
         <note>
            <pitch>
               <step>B</step>
               <octave>4</octave>
            </pitch>
            <duration>4</duration>
            <voice>1</voice>
            <type>quarter</type>
            <notations>
               <articulations>
                  <accent/>
               </articulations>
            </notations>
         </note>
      </measure>
   </part>
   <part id="P2">
      <measure number="1">
         <attributes>
            <divisions>4</divisions>
            <clef>
               <sign>F</sign>
               <line>4</line>
            </clef>
         </attributes>
         <note>
            <pitch>
               <step>C</step>
               <octave>3</octave>
            </pitch>
            <duration>8</duration>
            <voice>1</voice>
            <type>half</type>
         </note>
         <note>
            <pitch>
               <step>G</step>
               <octave>3</octave>
            </pitch>
            <duration>8</duration>
            <voice>1</voice>
            <type>half</type>
         </note>
      </measure>
      <measure number="2">
         <note>
            <pitch>
               <step>C</step>
               <octave>3</octave>
            </pitch>
            <duration>8</duration>
            <voice>1</voice>
            <type>half</type>
         </note>
         <note>
            <pitch>
               <step>G</step>
               <octave>3</octave>
            </pitch>
            <duration>8</duration>
            <voice>1</voice>
            <type>half</type>
         </note>
      </measure>
      <measure number="3">
         <note>
            <pitch>
               <step>C</step>
               <octave>3</octave>
            </pitch>
            <duration>8</duration>
            <voice>1</voice>
            <type>half</type>
         </note>
         <note>
            <pitch>
               <step>G</step>
               <octave>3</octave>
            </pitch>
            <duration>8</duration>
            <voice>1</voice>
            <type>half</type>
         </note>
      </measure>
      <measure number="4">
         <note>
            <pitch>
               <step>C</step>
               <octave>3</octave>
            </pitch>
            <duration>8</duration>
            <voice>1</voice>
            <type>half</type>
         </note>
         <note>
            <pitch>
               <step>G</step>
               <octave>3</octave>
            </pitch>
            <duration>8</duration>
            <voice>1</voice>
            <type>half</type>
         </note>
      </measure>
      <measure number="5">
         <note>
            <pitch>
               <step>C</step>
               <octave>3</octave>
            </pitch>
            <duration>8</duration>
            <voice>1</voice>
            <type>half</type>
         </note>
         <note>
            <pitch>
               <step>G</step>
               <octave>3</octave>
            </pitch>
            <duration>8</duration>
            <voice>1</voice>
            <type>half</type>
         </note>
      </measure>
      <measure number="6">
         <note>
            <pitch>
               <step>C</step>
               <octave>3</octave>
            </pitch>
            <duration>8</duration>
            <voice>1</voice>
            <type>half</type>
         </note>
         <note>
            <pitch>
               <step>G</step>
               <octave>3</octave>
            </pitch>
            <duration>8</duration>
            <voice>1</voice>
            <type>half</type>
         </note>
      </measure>
      <measure number="7">
         <note>
            <pitch>
               <step>C</step>
               <octave>3</octave>
            </pitch>
            <duration>8</duration>
            <voice>1</voice>
            <type>half</type>
         </note>
         <note>
            <pitch>
               <step>G</step>
               <octave>3</octave>
            </pitch>
            <duration>8</duration>
            <voice>1</voice>
            <type>half</type>
         </note>
      </measure>
      <measure number="8">
         <note>
            <pitch>
               <step>C</step>
               <octave>3</octave>
            </pitch>
            <duration>8</duration>
            <voice>1</voice>
            <type>half</type>
         </note>
         <note>
            <pitch>
               <step>G</step>
               <octave>3</octave>
            </pitch>
            <duration>8</duration>
            <voice>1</voice>
            <type>half</type>
         </note>
      </measure>
      <measure number="9">
         <note>
            <pitch>
               <step>C</step>
               <octave>3</octave>
            </pitch>
            <duration>8</duration>
            <voice>1</voice>
            <type>half</type>
         </note>
         <note>
            <pitch>
               <step>G</step>
               <octave>3</octave>
            </pitch>
            <duration>8</duration>
            <voice>1</voice>
            <type>half</type>
         </note>
      </measure>
      <measure number="10">
         <note>
            <pitch>
               <step>C</step>
               <octave>3</octave>
            </pitch>
            <duration>8</duration>
            <voice>1</voice>
            <type>half</type>
         </note>
         <note>
            <pitch>
               <step>G</step>
               <octave>3</octave>
            </pitch>
            <duration>8</duration>
            <voice>1</voice>
            <type>half</type>
         </note>
      </measure>
      <measure number="11">
         <note>
            <pitch>
               <step>C</step>
               <octave>2</octave>
            </pitch>
            <duration>16</duration>
            <voice>1</voice>
            <type>whole</type>
         </note>
      </measure>
      <measure number="12">
         <note>
            <pitch>
               <step>C</step>
               <octave>2</octave>
            </pitch>
            <duration>16</duration>
            <voice>1</voice>
            <type>whole</type>
         </note>
      </measure>
      <measure number="13">
         <note>
            <pitch>
               <step>C</step>
               <octave>2</octave>
            </pitch>
            <duration>16</duration>
            <voice>1</voice>
            <type>whole</type>
         </note>
      </measure>
      <measure number="14">
         <note>
            <pitch>
               <step>C</step>
               <octave>2</octave>
            </pitch>
            <duration>16</duration>
            <voice>1</voice>
            <type>whole</type>
         </note>
      </measure>
      <measure number="15">
         <note>
            <pitch>
               <step>C</step>
               <octave>2</octave>
            </pitch>
            <duration>16</duration>
            <voice>1</voice>
            <type>whole</type>
         </note>
      </measure>
      <measure number="16">
         <note>
            <pitch>
               <step>C</step>
               <octave>2</octave>
            </pitch>
            <duration>16</duration>
            <voice>1</voice>
            <type>whole</type>
         </note>
      </measure>
      <measure number="17">
         <note>
            <pitch>
               <step>C</step>
               <octave>2</octave>
            </pitch>
            <duration>16</duration>
            <voice>1</voice>
            <type>whole</type>
         </note>
      </measure>
      <measure number="18">
         <note>
            <pitch>
               <step>C</step>
               <octave>2</octave>
            </pitch>
            <duration>16</duration>
            <voice>1</voice>
            <type>whole</type>
         </note>
      </measure>
      <measure number="19">
         <note>
            <pitch>
               <step>C</step>
               <octave>2</octave>
            </pitch>
            <duration>16</duration>
            <voice>1</voice>
            <type>whole</type>
         </note>
      </measure>
      <measure number="20">
         <note>
            <pitch>
               <step>C</step>
               <octave>2</octave>
            </pitch>
            <duration>16</duration>
            <voice>1</voice>
            <type>whole</type>
         </note>
      </measure>
      <measure number="21">
         <note>
            <pitch>
               <step>C</step>
               <octave>3</octave>
            </pitch>
            <duration>4</duration>
            <voice>1</voice>
            <type>quarter</type>
         </note>
         <note>
            <pitch>
               <step>E</step>
               <octave>3</octave>
            </pitch>
            <duration>4</duration>
            <voice>1</voice>
            <type>quarter</type>
         </note>
         <note>
            <pitch>
               <step>G</step>
               <octave>3</octave>
            </pitch>
            <duration>4</duration>
            <voice>1</voice>
            <type>quarter</type>
         </note>
         <note>
            <pitch>
               <step>B</step>
               <octave>3</octave>
            </pitch>
            <duration>4</duration>
            <voice>1</voice>
            <type>quarter</type>
         </note>
      </measure>
      <measure number="22">
         <note>
            <pitch>
               <step>C</step>
               <octave>3</octave>
            </pitch>
            <duration>4</duration>
            <voice>1</voice>
            <type>quarter</type>
         </note>
         <note>
            <pitch>
               <step>E</step>
               <octave>3</octave>
            </pitch>
            <duration>4</duration>
            <voice>1</voice>
            <type>quarter</type>
         </note>
         <note>
            <pitch>
               <step>G</step>
               <octave>3</octave>
            </pitch>
            <duration>4</duration>
            <voice>1</voice>
            <type>quarter</type>
         </note>
         <note>
            <pitch>
               <step>B</step>
               <octave>3</octave>
            </pitch>
            <duration>4</duration>
            <voice>1</voice>
            <type>quarter</type>
         </note>
      </measure>
      <measure number="23">
         <note>
            <pitch>
               <step>C</step>
               <octave>3</octave>
            </pitch>
            <duration>4</duration>
            <voice>1</voice>
            <type>quarter</type>
         </note>
         <note>
            <pitch>
               <step>E</step>
               <octave>3</octave>
            </pitch>
            <duration>4</duration>
            <voice>1</voice>
            <type>quarter</type>
         </note>
         <note>
            <pitch>
               <step>G</step>
               <octave>3</octave>
            </pitch>
            <duration>4</duration>
            <voice>1</voice>
            <type>quarter</type>
         </note>
         <note>
            <pitch>
               <step>B</step>
               <octave>3</octave>
            </pitch>
            <duration>4</duration>
            <voice>1</voice>
            <type>quarter</type>
         </note>
      </measure>
      <measure number="24">
         <note>
            <pitch>
               <step>C</step>
               <octave>3</octave>
            </pitch>
            <duration>4</duration>
            <voice>1</voice>
            <type>quarter</type>
         </note>
         <note>
            <pitch>
               <step>E</step>
               <octave>3</octave>
            </pitch>
            <duration>4</duration>
            <voice>1</voice>
            <type>quarter</type>
         </note>
         <note>
            <pitch>
               <step>G</step>
               <octave>3</octave>
            </pitch>
            <duration>4</duration>
            <voice>1</voice>
            <type>quarter</type>
         </note>
         <note>
            <pitch>
               <step>B</step>
               <octave>3</octave>
            </pitch>
            <duration>4</duration>
            <voice>1</voice>
            <type>quarter</type>
         </note>
      </measure>
      <measure number="25">
         <note>
            <pitch>
               <step>C</step>
               <octave>3</octave>
            </pitch>
            <duration>4</duration>
            <voice>1</voice>
            <type>quarter</type>
         </note>
         <note>
            <pitch>
               <step>E</step>
               <octave>3</octave>
            </pitch>
            <duration>4</duration>
            <voice>1</voice>
            <type>quarter</type>
         </note>
         <note>
            <pitch>
               <step>G</step>
               <octave>3</octave>
            </pitch>
            <duration>4</duration>
            <voice>1</voice>
            <type>quarter</type>
         </note>
         <note>
            <pitch>
               <step>B</step>
               <octave>3</octave>
            </pitch>
            <duration>4</duration>
            <voice>1</voice>
            <type>quarter</type>
         </note>
      </measure>
      <measure number="26">
         <note>
            <pitch>
               <step>C</step>
               <octave>3</octave>
            </pitch>
            <duration>4</duration>
            <voice>1</voice>
            <type>quarter</type>
         </note>
         <note>
            <pitch>
               <step>E</step>
               <octave>3</octave>
            </pitch>
            <duration>4</duration>
            <voice>1</voice>
            <type>quarter</type>
         </note>
         <note>
            <pitch>
               <step>G</step>
               <octave>3</octave>
            </pitch>
            <duration>4</duration>
            <voice>1</voice>
            <type>quarter</type>
         </note>
         <note>
            <pitch>
               <step>B</step>
               <octave>3</octave>
            </pitch>
            <duration>4</duration>
            <voice>1</voice>
            <type>quarter</type>
         </note>
      </measure>
      <measure number="27">
         <note>
            <pitch>
               <step>C</step>
               <octave>3</octave>
            </pitch>
            <duration>4</duration>
            <voice>1</voice>
            <type>quarter</type>
         </note>
         <note>
            <pitch>
               <step>E</step>
               <octave>3</octave>
            </pitch>
            <duration>4</duration>
            <voice>1</voice>
            <type>quarter</type>
         </note>
         <note>
            <pitch>
               <step>G</step>
               <octave>3</octave>
            </pitch>
            <duration>4</duration>
            <voice>1</voice>
            <type>quarter</type>
         </note>
         <note>
            <pitch>
               <step>B</step>
               <octave>3</octave>
            </pitch>
            <duration>4</duration>
            <voice>1</voice>
            <type>quarter</type>
         </note>
      </measure>
      <measure number="28">
         <note>
            <pitch>
               <step>C</step>
               <octave>3</octave>
            </pitch>
            <duration>4</duration>
            <voice>1</voice>
            <type>quarter</type>
         </note>
         <note>
            <pitch>
               <step>E</step>
               <octave>3</octave>
            </pitch>
            <duration>4</duration>
            <voice>1</voice>
            <type>quarter</type>
         </note>
         <note>
            <pitch>
               <step>G</step>
               <octave>3</octave>
            </pitch>
            <duration>4</duration>
            <voice>1</voice>
            <type>quarter</type>
         </note>
         <note>
            <pitch>
               <step>B</step>
               <octave>3</octave>
            </pitch>
            <duration>4</duration>
            <voice>1</voice>
            <type>quarter</type>
         </note>
      </measure>
      <measure number="29">
         <note>
            <pitch>
               <step>C</step>
               <octave>3</octave>
            </pitch>
            <duration>4</duration>
            <voice>1</voice>
            <type>quarter</type>
         </note>
         <note>
            <pitch>
               <step>E</step>
               <octave>3</octave>
            </pitch>
            <duration>4</duration>
            <voice>1</voice>
            <type>quarter</type>
         </note>
         <note>
            <pitch>
               <step>G</step>
               <octave>3</octave>
            </pitch>
            <duration>4</duration>
            <voice>1</voice>
            <type>quarter</type>
         </note>
         <note>
            <pitch>
               <step>B</step>
               <octave>3</octave>
            </pitch>
            <duration>4</duration>
            <voice>1</voice>
            <type>quarter</type>
         </note>
      </measure>
      <measure number="30">
         <note>
            <pitch>
               <step>C</step>
               <octave>3</octave>
            </pitch>
            <duration>4</duration>
            <voice>1</voice>
            <type>quarter</type>
         </note>
         <note>
            <pitch>
               <step>E</step>
               <octave>3</octave>
            </pitch>
            <duration>4</duration>
            <voice>1</voice>
            <type>quarter</type>
         </note>
         <note>
            <pitch>
               <step>G</step>
               <octave>3</octave>
            </pitch>
            <duration>4</duration>
            <voice>1</voice>
            <type>quarter</type>
         </note>
         <note>
            <pitch>
               <step>B</step>
               <octave>3</octave>
            </pitch>
            <duration>4</duration>
            <voice>1</voice>
            <type>quarter</type>
         </note>
      </measure>
   </part>
</score-partwise>
